<svg width="24" height="24" viewBox="0 0 24 24" fill="none" xmlns="http://www.w3.org/2000/svg">
<path d="M7.88364 17.748L15.166 9.06404L15.905 12.4533C15.9926 12.8553 16.3969 13.1943 16.808 13.2106C17.2191 13.2269 17.4813 12.9142 17.3937 12.5123L16.2715 7.36589C16.1839 6.96397 15.7796 6.62491 15.3685 6.60863L10.1054 6.40031C9.89979 6.3922 9.73148 6.46625 9.62549 6.59264C9.51951 6.71902 9.47589 6.89769 9.51974 7.09864C9.60734 7.50058 10.0117 7.83963 10.4227 7.85591L13.8889 7.9931L6.60658 16.677C6.37789 16.9498 6.47837 17.4106 6.83101 17.7063C7.18364 18.002 7.65494 18.0207 7.88364 17.748Z" fill="white"/>
</svg>
