<svg width="24" height="24" viewBox="0 0 24 24" fill="none" xmlns="http://www.w3.org/2000/svg">
<path d="M7.88382 17.748L15.1662 9.06404L15.9052 12.4533C15.9928 12.8553 16.3971 13.1943 16.8082 13.2106C17.2192 13.2269 17.4814 12.9142 17.3938 12.5123L16.2717 7.36589C16.1841 6.96397 15.7798 6.62491 15.3687 6.60863L10.1055 6.40031C9.89998 6.3922 9.73166 6.46625 9.62568 6.59264C9.51969 6.71902 9.47607 6.89769 9.51992 7.09864C9.60753 7.50058 10.0118 7.83963 10.4229 7.85591L13.8891 7.9931L6.60676 16.677C6.37807 16.9498 6.47855 17.4106 6.83119 17.7063C7.18383 18.002 7.65513 18.0207 7.88382 17.748Z" fill="#303030"/>
</svg>
