<svg width="32" height="32" viewBox="0 0 32 32" fill="none" xmlns="http://www.w3.org/2000/svg">
<rect x="0.5" y="0.5" width="31" height="31" rx="15.5" fill="white" fill-opacity="0.2"/>
<rect x="0.5" y="0.5" width="31" height="31" rx="15.5" stroke="#333333"/>
<g clip-path="url(#clip0_471_8578)">
<path d="M15.3804 8.56964L15.3804 22.958L12.0874 20.2638C11.697 19.9443 11.0638 19.9443 10.6732 20.2638C10.2828 20.5833 10.2828 21.1014 10.6732 21.4209L15.6732 25.5118C16.0637 25.8313 16.6969 25.8313 17.0874 25.5118L22.0874 21.4209C22.2827 21.2611 22.3804 21.0518 22.3804 20.8424C22.3804 20.633 22.2827 20.4236 22.0874 20.2638C21.697 19.9443 21.0638 19.9443 20.6732 20.2638L17.3804 22.958L17.3804 8.56965C17.3804 8.11779 16.9326 7.75146 16.3804 7.75146C15.8281 7.75146 15.3804 8.11779 15.3804 8.56964Z" fill="#4F4F4F"/>
</g>
<defs>
<clipPath id="clip0_471_8578">
<rect width="24" height="24" fill="white" transform="translate(4 4)"/>
</clipPath>
</defs>
</svg>
