<svg width="116" height="163" viewBox="0 0 116 163" fill="none" xmlns="http://www.w3.org/2000/svg">
<path d="M59.8125 0V65.2C59.8125 68.5758 62.247 71.3125 65.25 71.3125H116V154.85C116 159.351 112.754 163 108.75 163H7.25C3.24593 163 0 159.351 0 154.85V8.15C0 3.64888 3.24593 0 7.24999 0H59.8125Z" fill="white"/>
<path d="M115.922 59.0875H70.6875V2.92891L114.029 54.6964C115.05 55.9154 115.706 57.4503 115.922 59.0875Z" fill="white"/>
<g clip-path="url(#clip0_438_11754)">
<path d="M64.35 98.275H59.275V103.35C59.275 104.056 58.7062 104.625 58 104.625C57.2937 104.625 56.725 104.056 56.725 103.35V98.275H51.65C50.9437 98.275 50.375 97.7062 50.375 97C50.375 96.2937 50.9437 95.725 51.65 95.725H56.725V90.65C56.725 89.9437 57.2937 89.375 58 89.375C58.7062 89.375 59.275 89.9437 59.275 90.65V95.725H64.35C65.0562 95.725 65.625 96.2937 65.625 97C65.625 97.7062 65.0562 98.275 64.35 98.275ZM58 81.6875C49.5562 81.6875 42.6875 88.5562 42.6875 97C42.6875 105.444 49.5562 112.312 58 112.312C66.4438 112.312 73.3125 105.444 73.3125 97C73.3125 88.5562 66.4438 81.6875 58 81.6875Z" fill="#4F4F4F"/>
</g>
<defs>
<clipPath id="clip0_438_11754">
<rect width="32" height="32" fill="white" transform="translate(42 81)"/>
</clipPath>
</defs>
</svg>
