<svg width="48" height="48" viewBox="0 0 48 48" fill="none" xmlns="http://www.w3.org/2000/svg">
<rect width="48" height="48" rx="24" fill="white"/>
<path d="M22.6663 30.8443C21.9297 30.8443 21.333 31.4012 21.333 32.0887C21.333 32.7757 21.9297 33.3332 22.6663 33.3332C23.403 33.3332 23.9997 32.7757 23.9997 32.0887C23.9997 31.4012 23.403 30.8443 22.6663 30.8443ZM19.979 19.6443L18.3157 14.6665H13.9997C13.6317 14.6665 13.333 14.9453 13.333 15.2887C13.333 15.6322 13.6317 15.9109 13.9997 15.9109H17.333L18.673 19.6443H18.6663L19.9997 27.1109C19.9997 28.4854 21.1937 29.5998 22.6663 29.5998H29.9997C31.4723 29.5998 32.6663 28.4854 32.6663 27.1109L34.6663 19.6443H19.979ZM29.333 30.8443C28.5963 30.8443 27.9997 31.4012 27.9997 32.0887C27.9997 32.7757 28.5963 33.3332 29.333 33.3332C30.0697 33.3332 30.6663 32.7757 30.6663 32.0887C30.6663 31.4012 30.0697 30.8443 29.333 30.8443Z" fill="#4F4F4F"/>
</svg>
