<svg width="48" height="48" viewBox="0 0 48 48" fill="none" xmlns="http://www.w3.org/2000/svg">
<rect width="48" height="48" rx="24" fill="white"/>
<path d="M30.9828 20.3657L34.2085 19.4698C34.541 19.3774 34.7358 19.0329 34.6434 18.7002C34.551 18.3677 34.2065 18.1729 33.8739 18.2653L29.8642 19.3791C29.864 19.3792 29.8645 19.379 29.8642 19.3791L24.6246 20.8345V13.9585C24.6246 13.6133 24.3448 13.3335 23.9996 13.3335C23.6545 13.3335 23.3746 13.6133 23.3746 13.9585V21.1817L17.8145 22.7262C17.8143 22.7263 17.8146 22.7262 17.8145 22.7262L13.7909 23.8439C13.4584 23.9362 13.2636 24.2808 13.3559 24.6134C13.4328 24.89 13.6841 25.0712 13.9578 25.0712C14.0132 25.0712 14.0695 25.0638 14.1254 25.0483L16.6331 24.3517L13.4222 29.7038C13.364 29.8009 13.3332 29.912 13.3332 30.0253C13.3332 32.5847 15.4154 34.6668 17.9747 34.6668C20.5341 34.6668 22.6163 32.5846 22.6163 30.0253C22.6163 29.912 22.5855 29.8009 22.5272 29.7038L18.933 23.7128L28.6829 21.0046L25.472 26.3566C25.4137 26.4538 25.3829 26.5649 25.3829 26.6782C25.3829 29.2376 27.4651 31.3197 30.0244 31.3197C31.2642 31.3197 32.4298 30.8369 33.3065 29.9602C34.1833 29.0834 34.666 27.9179 34.666 26.6781C34.666 26.5648 34.6353 26.4537 34.577 26.3566L30.9828 20.3657ZM20.8876 29.4003H15.062L17.9748 24.5452L20.8876 29.4003ZM27.1117 26.0531L30.0245 21.1981L32.9373 26.0531H27.1117Z" fill="#4F4F4F"/>
</svg>
