<svg width="48" height="48" viewBox="0 0 48 48" fill="none" xmlns="http://www.w3.org/2000/svg">
<rect x="0.5" y="0.5" width="47" height="47" rx="23.5" fill="#4F4F4F"/>
<rect x="0.5" y="0.5" width="47" height="47" rx="23.5" stroke="#4F4F4F"/>
<path d="M22.6666 30.8445C21.9299 30.8445 21.3333 31.4014 21.3333 32.089C21.3333 32.7759 21.9299 33.3334 22.6666 33.3334C23.4032 33.3334 23.9999 32.7759 23.9999 32.089C23.9999 31.4014 23.4032 30.8445 22.6666 30.8445ZM19.9792 19.6445L18.3159 14.6667H13.9999C13.6319 14.6667 13.3333 14.9455 13.3333 15.289C13.3333 15.6324 13.6319 15.9112 13.9999 15.9112H17.3333L18.6732 19.6445H18.6666L19.9999 27.1112C19.9999 28.4857 21.1939 29.6001 22.6666 29.6001H29.9999C31.4726 29.6001 32.6666 28.4857 32.6666 27.1112L34.6666 19.6445H19.9792ZM29.3333 30.8445C28.5966 30.8445 27.9999 31.4014 27.9999 32.089C27.9999 32.7759 28.5966 33.3334 29.3333 33.3334C30.0699 33.3334 30.6666 32.7759 30.6666 32.089C30.6666 31.4014 30.0699 30.8445 29.3333 30.8445Z" fill="white"/>
</svg>
