<svg width="145" height="40" viewBox="0 0 145 40" fill="none" xmlns="http://www.w3.org/2000/svg">
<path d="M44.0866 25.0724H41.5806V8.37762H44.0866V15.0659H45.798V8.37762H48.304V25.0724H45.798V17.7343H44.0866V25.0724ZM56.0666 21.3471C56.0666 23.6776 55.2895 25.2717 52.8708 25.2717H52.4516C50.0591 25.2717 49.2121 23.6776 49.2121 21.3471V12.0597C49.2121 9.72915 50.0591 8.22168 52.4254 8.22168H52.8446C55.2895 8.22168 56.0579 9.74648 56.0579 12.0337L56.0666 21.3471ZM53.5169 11.9211C53.5169 11.072 53.2288 10.6388 52.6525 10.6388C52.0063 10.6388 51.7618 11.046 51.7618 11.9211V21.529C51.7618 22.2481 51.9627 22.8112 52.6699 22.8112C53.3597 22.8112 53.5169 22.2481 53.5169 21.529V11.9211ZM56.931 8.37762H60.8778C62.9385 8.37762 63.5148 9.47791 63.5148 11.0893V13.6451C63.5148 15.0573 62.9123 15.7071 62.2749 15.9583C62.921 16.2095 63.7156 16.7207 63.7156 18.4014V22.0142C63.7156 23.7902 62.9385 25.0638 61.0524 25.0638H56.931V8.37762ZM59.4458 10.6388V14.9707H60.1967C60.8865 14.9707 61.0612 14.5028 61.0612 13.8011V11.6958C61.0612 11.0027 60.8865 10.6388 60.1967 10.6388H59.4458ZM59.4458 17.4658V22.7159H60.1967C60.9913 22.7159 61.1747 22.3347 61.1747 21.5897V18.5401C61.1747 17.847 61.0001 17.4658 60.1967 17.4658H59.4458ZM68.3609 21.9276H66.5185L66.2042 25.0724H63.9601L65.9772 8.37762H68.9547L71.1027 25.0724H68.684L68.3609 21.9276ZM66.7892 19.4411H68.099L67.4354 13.2726L66.7892 19.4411ZM75.2591 18.0722L73.4166 25.0724H70.8408L72.8404 17.6217C71.9322 17.3272 71.4607 16.6601 71.4607 15.6031V10.9594C71.4607 9.07072 72.3077 8.37762 73.9929 8.37762H78.062V25.0724H75.5559V18.0722H75.2591ZM75.5559 10.6388H74.8923C74.1152 10.6388 73.9842 10.994 73.9842 11.7131V14.4508C73.9842 15.1872 74.2025 15.6378 74.8923 15.6378H75.5559V10.6388ZM81.8341 8.37762H85.7809C87.8416 8.37762 88.4178 9.47791 88.4178 11.0893V13.6451C88.4178 15.0573 87.8154 15.7071 87.1779 15.9583C87.8241 16.2095 88.6187 16.7207 88.6187 18.4014V22.0142C88.6187 23.7902 87.8416 25.0638 85.9555 25.0638H81.8254L81.8341 8.37762ZM84.3401 10.6388V14.9707H85.091C85.7809 14.9707 85.9555 14.5028 85.9555 13.8011V11.6958C85.9555 11.0027 85.7809 10.6388 85.091 10.6388H84.3401ZM84.3401 17.4658V22.7159H85.091C85.8856 22.7159 86.069 22.3347 86.069 21.5897V18.5401C86.069 17.847 85.8944 17.4658 85.091 17.4658H84.3401ZM93.3251 14.8407C95.0365 14.8407 95.901 15.941 95.901 17.9163V22.1615C95.901 24.1628 95.1064 25.0811 93.3251 25.0811H89.3521V8.37762H91.8582V14.8407H93.3251ZM92.5043 22.6466C93.2378 22.6466 93.3688 22.1528 93.3688 21.503V18.4708C93.3688 17.7777 93.2815 17.2578 92.5043 17.2578H91.8582V22.6466H92.5043ZM99.1143 25.0724H96.6083V8.37762H99.1143V25.0724ZM104.153 17.8037H106.615V21.659C106.615 23.4523 106.012 25.2717 103.62 25.2717H103.061C100.511 25.2717 99.9787 23.435 99.9787 21.7456V11.5658C99.9787 9.85911 100.712 8.22168 102.974 8.22168H103.55C106.301 8.22168 106.615 10.0584 106.615 11.7045V14.6848H104.153V11.7478C104.153 11.0287 103.934 10.6475 103.306 10.6475C102.686 10.6475 102.528 11.0027 102.528 11.7478V21.659C102.528 22.4214 102.799 22.8026 103.323 22.8026C103.926 22.8026 104.144 22.3781 104.144 21.6763V17.8037H104.153ZM114.212 21.3471C114.212 23.6776 113.434 25.2717 111.016 25.2717H110.597C108.204 25.2717 107.357 23.6776 107.357 21.3471V12.0597C107.357 9.72915 108.204 8.22168 110.57 8.22168H110.99C113.434 8.22168 114.203 9.74648 114.203 12.0337L114.212 21.3471ZM111.653 11.9211C111.653 11.072 111.365 10.6388 110.789 10.6388C110.143 10.6388 109.898 11.046 109.898 11.9211V21.529C109.898 22.2481 110.099 22.8112 110.806 22.8112C111.496 22.8112 111.653 22.2481 111.653 21.529V11.9211ZM121.424 8.37762V10.8034H119.32V25.0811H116.831V10.7948H114.727V8.36896L121.424 8.37762ZM125.458 21.9276H123.616L123.301 25.0724H121.057L123.074 8.37762H126.052L128.209 25.0724H125.79L125.458 21.9276ZM123.886 19.4411H125.196L124.533 13.2726L123.886 19.4411Z" fill="#D7192D"/>
<path d="M29.7579 18.6356C29.7404 18.6963 29.7492 18.7223 29.8103 18.7483C29.8976 18.7916 30.0198 18.7829 30.1072 18.7743C30.2032 18.7656 30.3866 18.7049 30.3866 18.8609C30.3866 18.8696 30.3778 18.8869 30.3604 18.8869C30.1159 18.8782 29.8714 18.8696 29.6356 18.8609C29.5221 18.8609 29.3999 18.8522 29.2864 18.8522C29.2165 18.8522 29.1641 18.8436 29.1117 18.8002C29.0244 18.7223 28.9546 18.627 28.876 18.5403C28.8149 18.471 28.7537 18.4017 28.7013 18.3324C28.6577 18.2718 28.6228 18.1938 28.614 18.1158C28.6053 18.0032 28.5529 17.648 28.5878 17.648C29.1554 17.6133 29.7317 17.7346 30.2993 17.7519C30.3953 17.7519 30.4652 17.7606 30.535 17.8299C30.6136 17.8992 30.6747 17.9859 30.7184 18.0812C30.8144 18.2544 30.8581 18.4537 30.8406 18.653C30.8319 18.7136 30.4914 18.8262 30.439 18.6963C30.3866 18.549 29.7666 18.5663 29.7579 18.6356ZM28.3521 21.512C28.5442 21.4946 29.1379 21.4686 29.234 21.5033C29.3126 21.5293 29.3912 21.5813 29.4697 21.6159C29.6356 21.6852 29.8015 21.6766 29.9762 21.6592C30.0024 21.6592 30.1072 21.5466 29.95 21.4427C29.819 21.356 29.6793 21.2607 29.5396 21.1914C29.4173 21.1308 28.4743 21.1741 28.2473 21.1654C28.2473 21.1654 29.0768 20.2904 29.0593 20.3077V20.2991C29.0768 20.1258 29.0768 19.7446 28.8585 19.6926C28.745 19.6579 28.029 19.7186 27.9504 19.7359C27.9504 19.7359 27.7583 19.9872 27.7321 20.0045C27.6361 20.0825 27.6361 19.9092 27.671 19.7792C27.6885 19.7099 28.0727 19.424 28.1076 19.372C28.1338 19.3201 28.125 19.2594 28.1163 19.2074C28.1076 19.0082 28.0988 18.8002 28.0988 18.601C28.0988 18.601 28.0901 18.5403 28.0727 18.5663C27.9766 18.679 27.4789 19.2681 27.4789 19.2854C27.4789 19.528 27.4964 20.377 27.5138 20.5936C27.444 20.7322 27.3916 20.9055 27.2868 21.0181C27.1558 21.1481 26.8851 21.1134 26.7891 21.1568C26.7803 21.1654 26.7454 21.1914 26.7454 21.2087C26.7105 21.3474 26.8502 21.7112 26.8851 21.7286C26.9288 21.7459 26.9463 21.7459 26.9812 21.7545C27.0248 21.7719 27.0772 21.9798 27.1034 22.0751C27.1384 22.2051 27.1733 22.335 27.2169 22.465C27.2169 22.4736 27.2169 22.4736 27.2257 22.4736C27.2257 22.4823 27.2344 22.491 27.2431 22.4996C27.7059 22.5083 28.029 22.4996 28.4219 22.4996C28.5966 22.4996 28.7887 22.5169 28.9633 22.491C29.007 22.4823 29.0419 22.4476 29.0331 22.387C29.0157 22.2397 29.0331 22.1357 29.1903 22.0838C29.2514 22.0664 29.33 22.0491 29.3824 22.0058C29.4697 21.9278 29.365 21.8065 29.2689 21.7979C29.1729 21.7892 28.9109 21.7805 28.0377 21.7892C28.0377 21.7286 28.029 21.5639 28.0552 21.5553C28.0727 21.5293 28.2909 21.5206 28.3521 21.512ZM37.8697 31.6831C37.7824 31.4058 37.5379 30.8514 37.4681 30.6694C37.1974 29.959 36.3766 28.3822 35.9924 27.6198C35.8439 27.3253 35.1803 27.0394 34.8572 26.9614C33.9579 26.7448 33.0585 26.4849 32.1679 26.2423C31.9496 26.1817 31.74 26.1297 31.5217 26.069C31.3121 25.9911 31.1113 25.9218 30.9454 25.8611C30.8406 25.7398 30.6747 25.0467 30.5612 25.0207C30.4128 24.9861 30.2643 25.1507 30.1072 25.4106C30.1072 25.4193 30.0984 25.4193 30.0984 25.4279C30.0897 25.4539 30.0722 25.4712 30.0635 25.4972C30.0548 25.5059 30.0548 25.5146 30.046 25.5232C30.0373 25.5406 30.0198 25.5665 30.0111 25.5839C30.0024 25.6012 29.9936 25.6099 29.9936 25.6272C29.9849 25.6445 29.9762 25.6618 29.9675 25.6792C29.95 25.7138 29.9325 25.7485 29.9238 25.7831C29.9238 25.7918 29.9151 25.7918 29.9151 25.8005C29.8976 25.8351 29.8889 25.8698 29.8714 25.8958C29.8714 25.9044 29.8627 25.9044 29.8627 25.9131C29.8452 25.9477 29.8277 25.9911 29.819 26.0257C29.6007 26.5802 29.4086 27.2213 29.3126 27.5852C29.2864 27.6718 29.1816 27.6891 29.1205 27.6285C28.8149 27.1173 28.2473 26.5369 28.0377 26.303C28.029 26.2943 28.0203 26.2943 28.0115 26.2856C27.7845 26.0171 27.6623 25.8091 27.7932 25.5406C27.9417 25.2373 28.0028 24.9341 28.256 24.7955C28.5791 24.6049 28.9371 24.4316 29.234 24.1977C29.5047 23.9811 30.1508 23.9464 30.3516 23.6692C30.4564 23.5219 30.6485 23.2014 30.7009 23.0368C30.7097 23.0194 30.7795 22.7249 30.8057 22.6036C30.8057 22.5949 30.797 22.5776 30.7882 22.5776C30.7533 22.5776 30.6136 23.0108 30.3778 23.262C30.2119 23.4353 30.0984 23.4699 29.9587 23.4873H29.95C29.8714 23.4959 29.6007 23.5393 29.4697 23.5652C29.4261 23.5739 29.3912 23.5566 29.365 23.5219C29.3126 23.4613 29.3475 23.3746 29.4173 23.3487C29.4785 23.3313 29.5396 23.314 29.5396 23.314C29.5483 23.314 29.6094 23.2707 29.6094 23.21C29.6007 23.1407 29.6618 22.8375 28.8934 22.9328H28.8847C28.4918 22.9415 28.1076 22.9934 27.7146 23.0108C27.4964 23.0194 27.2781 23.0194 27.1733 22.7942C27.0772 22.6036 27.0161 22.387 26.9375 22.1791L26.7105 21.5726C26.6756 21.4686 26.6319 21.3733 26.597 21.2694C26.5533 21.1568 26.5009 21.0268 26.5271 20.9055C26.597 20.6196 26.9986 20.5503 27.0336 20.2557C27.051 20.1344 26.7716 19.9698 26.5621 19.9612C26.4485 19.9612 25.6539 19.9352 25.6103 19.8139C25.5841 19.7186 25.7413 19.2161 25.8373 19.0428C25.846 19.0255 25.8635 19.0082 25.881 18.9995C25.9159 18.9822 25.9421 18.9649 25.9858 18.9649C26.1953 18.9389 26.4136 18.9389 26.6232 18.9215C26.8327 18.9129 27.0598 18.9215 27.2606 18.8696C27.4265 18.8262 27.54 18.7049 27.6535 18.5923C27.8107 18.445 28.1512 18.0898 28.1512 18.0812C28.1862 18.0465 28.0203 17.5527 27.9417 17.5527C27.5924 17.544 26.3612 17.6307 26.1429 17.6393L25.9508 17.648C25.9072 17.5527 25.8984 17.544 25.8548 17.4487C25.8635 17.4401 25.8635 17.4401 25.8722 17.4314C26.9375 17.3014 28.0814 17.1802 28.8847 17.2235C29.6094 17.2581 30.1072 17.2928 30.439 17.3188C30.5961 17.3274 31.0938 17.5613 31.0415 18.6876V18.7136C31.0502 18.7829 30.9105 20.6023 30.9105 20.6023C30.9105 20.7409 31.1288 20.7409 31.1288 20.6023C31.1288 20.6023 31.1724 20.1951 31.1812 20.0825C31.2161 19.6753 31.3034 19.4067 31.3558 19.2508V19.2421C31.4431 19.0428 31.6701 18.2978 31.3907 18.2284C31.3558 18.2198 31.3645 18.1765 31.3645 18.1418C31.3733 18.0898 31.4257 17.3881 31.4257 17.3707C31.9496 17.3014 32.1853 16.539 31.4606 16.4437C29.8539 16.2965 28.2473 16.3051 26.6406 16.4697C26.4573 16.4957 26.2652 16.5304 26.0818 16.5564C26.5882 16.4611 28.2211 15.8893 31.4606 16.2618C31.5828 16.2791 31.4955 15.4388 31.2859 15.1182C31.2161 15.0056 31.0153 14.9796 30.9454 14.9796C30.4826 14.1825 29.7666 12.961 29.3038 12.909C29.1554 12.8917 28.7887 12.779 28.6489 12.7877C28.6402 12.7877 28.3608 12.6664 28.125 12.5971C27.1645 12.3199 25.261 12.7704 25.0602 12.987C24.8943 13.1689 24.8856 13.1949 24.7633 13.3682C23.8552 14.0872 23.34 15.7853 23.2265 15.8633C23.113 15.8979 23.0082 15.9759 22.9733 16.0799C22.9471 16.1319 22.9384 16.1838 22.9384 16.2445C22.9384 16.6603 22.9558 17.1455 22.9733 17.4227C22.982 17.648 23.2702 17.7953 23.602 17.7433C23.602 17.7693 23.6194 18.2111 23.6369 18.4104C23.6456 18.4537 23.6194 18.5057 23.5758 18.523C23.4885 18.5663 23.4186 18.627 23.375 18.7136C23.3662 18.7223 23.1217 19.2767 23.3924 19.9958C23.4885 20.2124 23.8727 20.8449 23.8727 20.8449C23.9687 21.0268 23.9949 21.1134 24.1608 21.0874C24.187 21.0874 24.2045 21.0788 24.2219 21.0701C24.2307 21.0874 24.3093 21.1654 24.4228 21.5726C24.4839 21.7979 24.545 22.0318 24.6585 22.231C24.7546 22.413 24.903 22.5429 25.0515 22.6816C25.0689 22.6902 25.0777 22.7075 25.0777 22.7249C25.165 22.9761 25.2086 24.4229 25.0165 24.9168C24.9903 24.9774 24.9117 25.0121 24.807 24.9774C24.4053 24.8475 24.1172 24.7782 24.091 24.8128C24.0473 24.8821 23.9949 25.22 23.9425 25.5752C23.8727 25.6012 23.8028 25.6359 23.733 25.6705C23.6282 25.7138 21.908 26.3289 21.8905 26.3376C21.2007 26.6495 20.0045 27.2213 19.3234 27.5419C18.4153 27.9231 17.4635 29.2486 17.0619 30.1323C16.9222 30.4355 16.8436 31.3019 16.8174 31.6657H37.8697V31.6831ZM29.2951 28.4429C29.7928 28.4082 29.8365 29.0407 29.3388 29.0753C28.8498 29.11 28.8061 28.4775 29.2951 28.4429ZM29.2951 29.7164C29.7928 29.6818 29.8365 30.3142 29.3388 30.3489C28.8498 30.3835 28.8061 29.7511 29.2951 29.7164ZM28.8236 13.0823C29.1292 13.4028 29.3126 13.5934 29.4785 13.94C29.8452 14.7024 29.7055 15.4388 29.6793 15.3175C29.6094 14.9189 29.4959 14.5724 29.3475 14.1912C29.2078 13.8447 28.9895 13.5328 28.7013 13.2382C28.614 13.1429 28.7363 12.9783 28.8236 13.0823ZM25.4095 13.1862C25.9072 13.3248 26.4485 13.6887 26.7716 14.0786C27.4265 14.867 27.5051 15.716 27.4178 15.5687C27.1558 15.1095 26.8502 14.6677 26.5009 14.2692C26.1866 13.9053 25.8199 13.5674 25.3396 13.4461C25.1737 13.3941 25.2436 13.1429 25.4095 13.1862ZM25.034 13.862C25.1824 13.784 25.2523 13.914 25.13 14.0439C24.7546 14.4511 24.7458 15.4474 24.6847 15.4648C24.4577 15.5341 23.8552 15.716 23.8377 15.7247C23.6718 15.768 24.3966 14.1825 25.034 13.862ZM23.4797 17.1975C23.3138 17.3534 23.3837 16.5217 23.3924 16.5131C23.4273 16.4784 23.5845 16.3918 23.8028 16.2791C23.8465 16.2618 23.8989 16.2791 23.9163 16.3224C23.9251 16.3484 23.9425 16.3658 23.9512 16.3918C23.9687 16.4091 24.0386 16.6084 24.2132 16.5564C24.3791 16.5131 24.9991 16.2965 25.2697 16.2185C25.3221 16.2012 25.3745 16.2445 25.3833 16.2965C25.3833 16.3398 25.3571 16.3744 25.3221 16.3831C24.9729 16.4784 23.7853 16.9029 23.4797 17.1975Z" fill="#231F20"/>
<path d="M17.6732 29.1359V27.5158H19.4458C19.926 27.2818 20.6071 26.9613 21.2009 26.6841H17.6732V23.3486H25.1738C25.1651 23.0627 25.1389 22.8287 25.104 22.7421C25.0952 22.7248 25.0865 22.7074 25.0778 22.6988C25.0166 22.6381 24.9468 22.5775 24.8857 22.5168H17.6645V19.19H23.2878C23.3052 18.9041 23.3838 18.7222 23.3925 18.7222C23.4362 18.6442 23.506 18.5749 23.5934 18.5316C23.637 18.5142 23.6632 18.4709 23.6545 18.4189C23.6545 18.4016 23.6545 18.3756 23.6458 18.3496H17.6645V15.0228H23.6458C23.768 14.7629 23.9164 14.4683 24.0911 14.1911H17.6645V10.8556H26.9027V12.545C27.1909 12.519 27.4877 12.5104 27.741 12.5363V8.35181H26.9027V10.0239H17.6732V8.35181H16.835V31.6916C16.8612 31.3364 16.9397 30.4701 17.0795 30.1582C17.2192 29.8463 17.42 29.4911 17.6732 29.1359Z" fill="#D7192D"/>
<path d="M130.627 9.60804C130.627 9.94592 130.505 10.2405 130.26 10.4831C130.016 10.7256 129.728 10.8469 129.379 10.8469C129.038 10.8469 128.741 10.7256 128.497 10.4831C128.252 10.2405 128.13 9.95459 128.13 9.60804C128.13 9.27016 128.252 8.9756 128.497 8.73301C128.741 8.49043 129.029 8.36914 129.379 8.36914C129.728 8.36914 130.016 8.49043 130.26 8.72435C130.505 8.96693 130.627 9.2615 130.627 9.60804ZM130.418 9.60804C130.418 9.32214 130.313 9.07956 130.112 8.8803C129.911 8.68103 129.667 8.57707 129.379 8.57707C129.09 8.57707 128.846 8.68103 128.645 8.8803C128.444 9.07956 128.339 9.32214 128.339 9.60804C128.339 9.89394 128.444 10.1365 128.645 10.3358C128.846 10.535 129.09 10.639 129.379 10.639C129.667 10.639 129.911 10.535 130.112 10.3358C130.322 10.1279 130.418 9.88528 130.418 9.60804ZM129.981 10.3185H129.719L129.352 9.76399H129.125V10.3185H128.907V8.90629H129.483C129.606 8.90629 129.719 8.9496 129.815 9.02758C129.911 9.10555 129.964 9.20951 129.964 9.33947C129.964 9.47809 129.92 9.58205 129.833 9.65136C129.745 9.72067 129.667 9.75532 129.606 9.75532L129.981 10.3185ZM129.737 9.3308C129.737 9.26149 129.71 9.20085 129.658 9.14887C129.606 9.10555 129.544 9.07956 129.483 9.07956H129.117V9.56472H129.483C129.553 9.56472 129.606 9.53873 129.658 9.49541C129.71 9.46076 129.737 9.40011 129.737 9.3308Z" fill="#D7192D"/>
<path d="M43.2658 30.0888L42.2878 28.1655H41.5806L42.9165 30.678L42.8816 30.7386C42.8379 30.8253 42.7943 30.8946 42.7594 30.9465C42.7244 30.9985 42.6895 31.0418 42.6546 31.0678C42.6196 31.0938 42.5847 31.1198 42.5498 31.1285C42.5149 31.1371 42.4625 31.1458 42.4101 31.1458C42.3315 31.1458 42.2704 31.1285 42.2093 31.0938C42.1394 31.0592 42.087 31.0072 42.0346 30.9552L41.9386 30.8512L41.6679 31.3624L41.7115 31.4144C41.7814 31.501 41.8862 31.579 42.0172 31.631C42.1481 31.683 42.2878 31.7176 42.445 31.7176C42.576 31.7176 42.6895 31.7003 42.7943 31.6656C42.8903 31.631 42.9864 31.579 43.065 31.5183C43.1436 31.4577 43.2134 31.3797 43.2745 31.2931C43.3357 31.2065 43.388 31.1198 43.4492 31.0159L44.986 28.1482H44.2787L43.2658 30.0888Z" fill="#231F20"/>
<path d="M47.5971 30.0802C47.5359 30.0022 47.4574 29.9329 47.37 29.8723C47.3613 29.8636 47.3526 29.8636 47.3526 29.8549C47.4312 29.8116 47.4923 29.751 47.5534 29.6817C47.6145 29.6123 47.6669 29.5257 47.7019 29.4217C47.7368 29.3264 47.7542 29.2138 47.7542 29.1012C47.7542 28.9626 47.728 28.8413 47.6844 28.72C47.632 28.5987 47.5621 28.5034 47.4748 28.4168C47.3875 28.3301 47.274 28.2695 47.143 28.2175C47.012 28.1742 46.8723 28.1482 46.7152 28.1482H45.126V31.657H46.7501C46.916 31.657 47.0644 31.631 47.1954 31.5877C47.3264 31.5443 47.4399 31.475 47.536 31.3797C47.632 31.2931 47.7019 31.1805 47.7542 31.0592C47.7979 30.9379 47.8241 30.8079 47.8241 30.6606C47.8241 30.548 47.8066 30.4441 47.763 30.3401C47.7106 30.2535 47.6582 30.1668 47.5971 30.0802ZM45.7459 30.1755H46.6628C46.7501 30.1755 46.8287 30.1928 46.8898 30.2188C46.9509 30.2448 47.0033 30.2794 47.047 30.3228C47.0906 30.3661 47.1168 30.4094 47.143 30.47C47.1692 30.5307 47.1779 30.5913 47.1779 30.652C47.1779 30.7993 47.1343 30.9119 47.047 30.9985C46.9597 31.0852 46.8287 31.1198 46.6628 31.1198H45.7459V30.1755ZM46.6366 29.595H45.7459V28.7373H46.6366C46.7937 28.7373 46.916 28.7806 46.9858 28.8586C47.0644 28.9452 47.0994 29.0405 47.0994 29.1705C47.0994 29.2918 47.0644 29.3958 46.9858 29.4824C46.916 29.5604 46.8025 29.595 46.6366 29.595Z" fill="#231F20"/>
<path d="M48.269 31.6743H50.6528V31.1025H48.889V30.1755H50.6179V29.595H48.889V28.7373H50.6528V28.1655H48.269V31.6743Z" fill="#231F20"/>
<path d="M53.4034 28.4947C53.3074 28.3908 53.1852 28.3128 53.0367 28.2522C52.897 28.1915 52.7311 28.1655 52.5565 28.1655H51.1157V31.6743H51.7357V30.3574H52.5565C52.7311 30.3574 52.897 30.3314 53.0367 30.2708C53.1764 30.2101 53.2987 30.1322 53.4034 30.0282C53.4995 29.9242 53.5781 29.8116 53.6305 29.673C53.6829 29.543 53.7091 29.3958 53.7091 29.2485C53.7091 29.1012 53.6829 28.9626 53.6305 28.824C53.5694 28.7113 53.4995 28.59 53.4034 28.4947ZM51.7357 28.7373H52.5041C52.6787 28.7373 52.8097 28.7806 52.9145 28.8846C53.0192 28.9799 53.0629 29.1099 53.0629 29.2658C53.0629 29.4304 53.0105 29.5517 52.9145 29.647C52.8097 29.7423 52.6787 29.7943 52.5041 29.7943H51.7357V28.7373Z" fill="#231F20"/>
<path d="M54.0493 31.6743H56.4331V31.1025H54.6693V30.1755H56.3982V29.595H54.6693V28.7373H56.4331V28.1655H54.0493V31.6743Z" fill="#231F20"/>
<path d="M59.2541 29.5864H57.5164V28.1655H56.8965V31.6743H57.5164V30.1582H59.2541V31.6743H59.874V28.1655H59.2541V29.5864Z" fill="#231F20"/>
<path d="M62.8165 29.5864H61.0789V28.1655H60.4502V31.6743H61.0789V30.1582H62.8165V31.6743H63.4365V28.1655H62.8165V29.5864Z" fill="#231F20"/>
<path d="M66.903 28.6333C66.7458 28.4687 66.5624 28.3388 66.3441 28.2521C66.1258 28.1655 65.8901 28.1135 65.6281 28.1135C65.3662 28.1135 65.1304 28.1568 64.9121 28.2521C64.6938 28.3474 64.5105 28.4687 64.3533 28.6333C64.1961 28.798 64.0826 28.9886 63.9953 29.2138C63.908 29.4304 63.873 29.673 63.873 29.9329C63.873 30.1928 63.9167 30.4267 63.9953 30.652C64.0826 30.8686 64.1961 31.0678 64.3533 31.2324C64.5105 31.397 64.6938 31.527 64.9121 31.6136C65.1304 31.7003 65.3662 31.7523 65.6281 31.7523C65.8901 31.7523 66.1258 31.7089 66.3441 31.6136C66.5624 31.5183 66.7458 31.397 66.903 31.2324C67.0601 31.0678 67.1737 30.8772 67.261 30.652C67.3483 30.4354 67.3832 30.1928 67.3832 29.9329C67.3832 29.673 67.3396 29.4391 67.261 29.2138C67.1824 28.9886 67.0601 28.798 66.903 28.6333ZM65.6369 31.1631C65.4622 31.1631 65.3138 31.1285 65.1741 31.0678C65.0344 31.0072 64.9209 30.9205 64.8248 30.8079C64.7288 30.6953 64.6502 30.5653 64.5978 30.4181C64.5454 30.2621 64.5192 30.0975 64.5192 29.9156C64.5192 29.7336 64.5454 29.569 64.5978 29.4131C64.6502 29.2658 64.7288 29.1272 64.8248 29.0232C64.9209 28.9192 65.0431 28.8326 65.1741 28.772C65.3138 28.7113 65.471 28.6767 65.6369 28.6767C65.8115 28.6767 65.9599 28.7113 66.0997 28.772C66.2394 28.8326 66.3529 28.9192 66.4489 29.0232C66.545 29.1272 66.6236 29.2658 66.6759 29.4131C66.7283 29.569 66.7545 29.7336 66.7545 29.9156C66.7545 30.0975 66.7283 30.2621 66.6759 30.4094C66.6236 30.5567 66.545 30.6953 66.4489 30.7993C66.3529 30.9119 66.2394 30.9985 66.0997 31.0592C65.9599 31.1371 65.8028 31.1631 65.6369 31.1631Z" fill="#231F20"/>
<path d="M70.3434 30.7299C70.2561 30.8599 70.1426 30.9639 69.9942 31.0418C69.8457 31.1198 69.6885 31.1631 69.5139 31.1631C69.348 31.1631 69.1908 31.1285 69.0424 31.0765C68.9027 31.0158 68.7717 30.9292 68.6669 30.8252C68.5621 30.7126 68.4748 30.5827 68.4224 30.4354C68.3613 30.2794 68.3351 30.1148 68.3351 29.9329C68.3351 29.751 68.3613 29.5777 68.4224 29.4304C68.4836 29.2831 68.5621 29.1532 68.6669 29.0405C68.7717 28.9366 68.894 28.8499 69.0424 28.7893C69.1821 28.7286 69.3393 28.7027 69.5139 28.7027C69.6885 28.7027 69.8457 28.746 69.9854 28.824C70.1339 28.9106 70.2474 29.0145 70.3347 29.1358L70.3871 29.2138L70.9197 28.9192L70.8499 28.824C70.78 28.7287 70.7014 28.6333 70.6054 28.5554C70.5181 28.4687 70.4133 28.3994 70.2998 28.3301C70.1863 28.2695 70.064 28.2175 69.933 28.1828C69.8021 28.1482 69.6536 28.1309 69.4964 28.1309C69.2432 28.1309 69.0075 28.1742 68.7892 28.2608C68.5709 28.3475 68.3788 28.4687 68.2129 28.6333C68.047 28.7893 67.916 28.9886 67.8287 29.2051C67.7326 29.4304 67.689 29.673 67.689 29.9416C67.689 30.2101 67.7326 30.4527 67.8287 30.678C67.9247 30.9032 68.0557 31.0938 68.2129 31.2498C68.3788 31.4057 68.5709 31.5357 68.7892 31.6223C69.0075 31.7089 69.2432 31.7523 69.4964 31.7523C69.8108 31.7523 70.0815 31.6829 70.2998 31.553C70.5181 31.423 70.7014 31.2584 70.8499 31.0592L70.9197 30.9639L70.3784 30.6693L70.3434 30.7299Z" fill="#231F20"/>
<path d="M70.9893 28.7373H72.0371V31.6743H72.6658V28.7373H73.7223V28.1655H70.9893V28.7373Z" fill="#231F20"/>
<path d="M76.3507 29.8031C76.2547 29.6991 76.1324 29.6211 75.984 29.5605C75.8443 29.4998 75.6784 29.4739 75.5037 29.4739H74.6829V28.157H74.063V31.6658H75.5037C75.6871 31.6658 75.8443 31.6398 75.984 31.5791C76.1237 31.5185 76.2459 31.4405 76.3507 31.3365C76.4468 31.2326 76.5254 31.1199 76.5777 30.9813C76.6301 30.8514 76.6563 30.7041 76.6563 30.5568C76.6563 30.4095 76.6301 30.2709 76.5777 30.1323C76.5254 30.0283 76.4555 29.907 76.3507 29.8031ZM74.6917 30.0543H75.4601C75.6347 30.0543 75.7657 30.0976 75.8705 30.2016C75.9753 30.2969 76.0189 30.4269 76.0189 30.5828C76.0189 30.7474 75.9665 30.8687 75.8705 30.964C75.7657 31.0593 75.6347 31.1113 75.4601 31.1113H74.6917V30.0543Z" fill="#231F20"/>
<path d="M80.7689 30.0802C80.7078 30.0022 80.6292 29.9329 80.5419 29.8723C80.5332 29.8636 80.5245 29.8636 80.5245 29.8549C80.603 29.8116 80.6642 29.751 80.7253 29.6817C80.7864 29.6123 80.8388 29.5257 80.8737 29.4217C80.9087 29.3264 80.9261 29.2138 80.9261 29.1012C80.9261 28.9626 80.8999 28.8413 80.8563 28.72C80.8039 28.5987 80.734 28.5034 80.6467 28.4168C80.5594 28.3301 80.4459 28.2695 80.3149 28.2175C80.1839 28.1742 80.0442 28.1482 79.887 28.1482H78.2979V31.657H79.922C80.0879 31.657 80.2363 31.631 80.3673 31.5877C80.4983 31.5443 80.6118 31.475 80.7078 31.3797C80.8039 31.2931 80.8737 31.1805 80.9261 31.0592C80.9698 30.9379 80.996 30.8079 80.996 30.6606C80.996 30.548 80.9785 30.4441 80.9349 30.3401C80.8912 30.2535 80.8388 30.1668 80.7689 30.0802ZM78.9178 30.1755H79.8346C79.922 30.1755 80.0006 30.1928 80.0617 30.2188C80.1228 30.2448 80.1752 30.2794 80.2188 30.3228C80.2625 30.3661 80.2887 30.4094 80.3149 30.47C80.3411 30.5307 80.3498 30.5913 80.3498 30.652C80.3498 30.7993 80.3062 30.9119 80.2188 30.9985C80.1315 31.0852 80.0005 31.1198 79.8346 31.1198H78.9178V30.1755ZM79.8172 29.595H78.9265V28.7373H79.8172C79.9744 28.7373 80.0966 28.7806 80.1665 28.8586C80.245 28.9452 80.28 29.0405 80.28 29.1705C80.28 29.2918 80.245 29.3958 80.1665 29.4824C80.0879 29.5604 79.9744 29.595 79.8172 29.595Z" fill="#231F20"/>
<path d="M96.5558 28.1655H94.3204L94.1021 29.9156C94.0672 30.1928 94.0235 30.4094 93.9799 30.574C93.9362 30.73 93.8926 30.8513 93.8314 30.9379C93.779 31.0159 93.7267 31.0678 93.6655 31.0852C93.5957 31.1112 93.5171 31.1285 93.4298 31.1372L93.3337 31.1458V31.579L91.8144 29.8463L93.2988 28.1742H92.5042L91.3167 29.5517V28.1742H90.6967V29.543L89.5092 28.1655H88.7146L90.1903 29.8376L88.7583 31.4837L87.4136 28.1655H86.7587L85.414 31.4837L83.982 29.8376L85.4577 28.1655H84.6631L83.3446 29.699V28.1655H82.7246V31.6743H83.3446V30.5047L83.5716 30.2448L84.7853 31.6743H85.3267H85.5712H86.0252L86.3221 30.9379H87.8414L88.1383 31.6743H88.5924H88.8369H89.3782L90.5919 30.2448L90.688 30.3488V31.6743H91.3079V30.3488L91.404 30.2448L92.6177 31.6743H93.325V32.2808H93.945V31.6743H96.2152V32.2808H96.8352V31.1025H96.5296V28.1655H96.5558ZM87.6493 30.3748H86.5404L87.0992 28.9799L87.6493 30.3748ZM95.9358 28.7373V31.1025H94.3553C94.4165 31.0245 94.4689 30.9292 94.5212 30.8166C94.6086 30.6173 94.6784 30.3314 94.7221 29.9676L94.8792 28.7373H95.9358Z" fill="#231F20"/>
<path d="M100.084 28.6333C99.9265 28.4687 99.7431 28.3388 99.5248 28.2521C99.3065 28.1655 99.0708 28.1135 98.8088 28.1135C98.5468 28.1135 98.3111 28.1568 98.0928 28.2521C97.8745 28.3474 97.6911 28.4687 97.534 28.6333C97.3768 28.798 97.2633 28.9886 97.176 29.2138C97.0886 29.4304 97.0537 29.673 97.0537 29.9329C97.0537 30.1928 97.0974 30.4267 97.176 30.652C97.2633 30.8686 97.3768 31.0678 97.534 31.2324C97.6911 31.397 97.8745 31.527 98.0928 31.6136C98.3111 31.7003 98.5468 31.7523 98.8088 31.7523C99.0708 31.7523 99.3065 31.7089 99.5248 31.6136C99.7431 31.5183 99.9265 31.397 100.084 31.2324C100.241 31.0678 100.354 30.8772 100.442 30.652C100.529 30.4354 100.564 30.1928 100.564 29.9329C100.564 29.673 100.52 29.4391 100.442 29.2138C100.354 28.9886 100.232 28.798 100.084 28.6333ZM98.8088 31.1631C98.6342 31.1631 98.4857 31.1285 98.346 31.0678C98.2063 31.0072 98.0928 30.9205 97.9967 30.8079C97.9007 30.6953 97.8221 30.5653 97.7697 30.4181C97.7173 30.2621 97.6911 30.0975 97.6911 29.9156C97.6911 29.7336 97.7173 29.569 97.7697 29.4131C97.8221 29.2658 97.9007 29.1272 97.9967 29.0232C98.0928 28.9192 98.215 28.8326 98.346 28.772C98.4857 28.7113 98.6429 28.6767 98.8088 28.6767C98.9834 28.6767 99.1319 28.7113 99.2716 28.772C99.4113 28.8326 99.5248 28.9192 99.6209 29.0232C99.7169 29.1272 99.7955 29.2658 99.8479 29.4131C99.9003 29.569 99.9265 29.7336 99.9265 29.9156C99.9265 30.0975 99.9003 30.2621 99.8479 30.4094C99.7955 30.5567 99.7169 30.6953 99.6209 30.7993C99.5248 30.9119 99.4113 30.9985 99.2716 31.0592C99.1319 31.1371 98.9834 31.1631 98.8088 31.1631Z" fill="#231F20"/>
<path d="M101.952 28.0615C102.118 28.1481 102.302 28.1914 102.494 28.1914C102.686 28.1914 102.869 28.1481 103.035 28.0615C103.201 27.9748 103.341 27.8622 103.445 27.7149L103.498 27.637L103.149 27.3424L103.079 27.4377C103.009 27.533 102.93 27.611 102.825 27.663C102.721 27.7149 102.607 27.7409 102.476 27.7409C102.345 27.7409 102.232 27.7149 102.127 27.6543C102.022 27.5937 101.935 27.5243 101.865 27.4204L101.795 27.3337L101.455 27.6283L101.516 27.7063C101.647 27.8536 101.786 27.9748 101.952 28.0615Z" fill="#231F20"/>
<path d="M101.638 30.5394V28.1655H101.009V31.6743H101.568L103.349 29.2571V31.6743H103.978V28.1655H103.393L101.638 30.5394Z" fill="#231F20"/>
<path d="M108.353 30.7299C108.265 30.8599 108.152 30.9639 108.003 31.0418C107.855 31.1198 107.698 31.1631 107.523 31.1631C107.357 31.1631 107.2 31.1285 107.052 31.0765C106.912 31.0158 106.781 30.9292 106.676 30.8252C106.571 30.7126 106.484 30.5827 106.432 30.4354C106.371 30.2794 106.344 30.1148 106.344 29.9329C106.344 29.751 106.371 29.5777 106.432 29.4304C106.493 29.2831 106.571 29.1532 106.676 29.0405C106.781 28.9366 106.903 28.8499 107.052 28.7893C107.191 28.7286 107.349 28.7027 107.523 28.7027C107.698 28.7027 107.855 28.746 107.995 28.824C108.143 28.9106 108.257 29.0145 108.344 29.1358L108.396 29.2138L108.929 28.9192L108.859 28.824C108.789 28.7287 108.711 28.6333 108.615 28.5554C108.527 28.4687 108.423 28.3994 108.309 28.3301C108.196 28.2695 108.073 28.2175 107.942 28.1828C107.811 28.1482 107.663 28.1309 107.506 28.1309C107.252 28.1309 107.017 28.1742 106.798 28.2608C106.58 28.3475 106.388 28.4687 106.222 28.6333C106.056 28.7893 105.925 28.9886 105.838 29.2051C105.742 29.4304 105.698 29.673 105.698 29.9416C105.698 30.2101 105.742 30.4527 105.838 30.678C105.934 30.9032 106.065 31.0938 106.222 31.2498C106.388 31.4057 106.58 31.5357 106.798 31.6223C107.017 31.7089 107.252 31.7523 107.506 31.7523C107.82 31.7523 108.091 31.6829 108.309 31.553C108.527 31.423 108.711 31.2584 108.859 31.0592L108.929 30.9639L108.388 30.6693L108.353 30.7299Z" fill="#231F20"/>
<path d="M113.356 30.0888L112.378 28.1655H111.732H111.662H108.99V28.7373H110.047V31.6743H110.667V28.7373H111.723V28.2868L112.989 30.678L112.954 30.7386C112.911 30.8253 112.867 30.8946 112.832 30.9465C112.797 30.9985 112.762 31.0418 112.727 31.0678C112.693 31.0938 112.658 31.1198 112.623 31.1285C112.588 31.1371 112.535 31.1458 112.483 31.1458C112.404 31.1458 112.343 31.1285 112.282 31.0938C112.212 31.0592 112.16 31.0072 112.107 30.9552L112.011 30.8512L111.741 31.3624L111.784 31.4144C111.854 31.501 111.959 31.579 112.09 31.631C112.221 31.683 112.361 31.7176 112.518 31.7176C112.649 31.7176 112.762 31.7003 112.867 31.6656C112.963 31.631 113.059 31.579 113.138 31.5183C113.216 31.4577 113.286 31.3797 113.347 31.2931C113.409 31.2065 113.461 31.1198 113.522 31.0159L115.059 28.1482H114.352L113.356 30.0888Z" fill="#231F20"/>
<path d="M115.207 31.6743H115.827V28.7373H117.565V31.6743H118.193V28.1655H115.207V31.6743Z" fill="#231F20"/>
<path d="M118.761 31.6743H121.153V31.1025H119.389V30.1755H121.118V29.595H119.389V28.7373H121.153V28.1655H118.761V31.6743Z" fill="#231F20"/>
<path d="M123.974 29.5864H122.237V28.1655H121.608V31.6743H122.237V30.1582H123.974V31.6743H124.594V28.1655H123.974V29.5864Z" fill="#231F20"/>
<path d="M127.554 28.1655L125.79 30.5394V28.1655H125.17V31.6743H125.729L127.511 29.2571V31.6743H128.13V28.1655H127.554Z" fill="#231F20"/>
</svg>
