<svg width="48" height="48" viewBox="0 0 48 48" fill="none" xmlns="http://www.w3.org/2000/svg">
<rect width="48" height="48" rx="24" fill="#4F4F4F"/>
<path d="M22.6666 30.8444C21.9299 30.8444 21.3333 31.4013 21.3333 32.0888C21.3333 32.7758 21.9299 33.3333 22.6666 33.3333C23.4032 33.3333 23.9999 32.7758 23.9999 32.0888C23.9999 31.4013 23.4032 30.8444 22.6666 30.8444ZM19.9792 19.6444L18.3159 14.6666H13.9999C13.6319 14.6666 13.3333 14.9454 13.3333 15.2888C13.3333 15.6323 13.6319 15.9111 13.9999 15.9111H17.3333L18.6732 19.6444H18.6666L19.9999 27.1111C19.9999 28.4856 21.1939 29.6 22.6666 29.6H29.9999C31.4726 29.6 32.6666 28.4856 32.6666 27.1111L34.6666 19.6444H19.9792ZM29.3333 30.8444C28.5966 30.8444 27.9999 31.4013 27.9999 32.0888C27.9999 32.7758 28.5966 33.3333 29.3333 33.3333C30.0699 33.3333 30.6666 32.7758 30.6666 32.0888C30.6666 31.4013 30.0699 30.8444 29.3333 30.8444Z" fill="white"/>
</svg>
