<svg width="48" height="48" viewBox="0 0 48 48" fill="none" xmlns="http://www.w3.org/2000/svg">
<rect width="48" height="48" rx="24" fill="#4F4F4F"/>
<path d="M30.9831 20.3656L34.2088 19.4696C34.5414 19.3773 34.7361 19.0328 34.6437 18.7001C34.5513 18.3676 34.2069 18.1728 33.8742 18.2652L29.8645 19.379C29.8643 19.3791 29.8648 19.3789 29.8645 19.379L24.6249 20.8344V13.9584C24.6249 13.6132 24.3451 13.3334 23.9999 13.3334C23.6548 13.3334 23.3749 13.6132 23.3749 13.9584V21.1816L17.8148 22.7261C17.8146 22.7262 17.815 22.7261 17.8148 22.7261L13.7912 23.8437C13.4587 23.9361 13.2639 24.2806 13.3562 24.6133C13.4331 24.8899 13.6844 25.0711 13.9581 25.0711C14.0135 25.0711 14.0698 25.0637 14.1257 25.0481L16.6335 24.3515L13.4225 29.7037C13.3643 29.8008 13.3335 29.9119 13.3335 30.0252C13.3335 32.5845 15.4157 34.6667 17.975 34.6667C20.5345 34.6667 22.6166 32.5845 22.6166 30.0252C22.6166 29.9119 22.5858 29.8008 22.5275 29.7036L18.9333 23.7127L28.6832 21.0045L25.4723 26.3565C25.414 26.4537 25.3832 26.5648 25.3832 26.678C25.3832 29.2375 27.4654 31.3196 30.0247 31.3196C31.2645 31.3196 32.4301 30.8368 33.3069 29.96C34.1836 29.0833 34.6664 27.9178 34.6663 26.678C34.6664 26.5647 34.6356 26.4536 34.5773 26.3565L30.9831 20.3656ZM20.8879 29.4002H15.0623L17.9751 24.545L20.8879 29.4002ZM27.112 26.053L30.0248 21.198L32.9376 26.053H27.112Z" fill="white"/>
</svg>
