<svg width="49" height="49" viewBox="0 0 49 49" fill="none" xmlns="http://www.w3.org/2000/svg">
<g clip-path="url(#clip0_587_2601)">
<path d="M15.6624 9.14522H33.1625C33.4845 9.14522 33.7458 8.75319 33.7458 8.27024C33.7458 7.78722 33.4845 7.39526 33.1625 7.39526H15.6624C15.3404 7.39526 15.0791 7.78729 15.0791 8.27024C15.0791 8.75319 15.3405 9.14522 15.6624 9.14522Z" fill="#4F4F4F"/>
<path d="M33.1625 13.5203H15.6624C15.3404 13.5203 15.0791 13.9123 15.0791 14.3952C15.0791 14.8782 15.3405 15.2702 15.6624 15.2702H33.1625C33.4845 15.2702 33.7458 14.8782 33.7458 14.3952C33.7458 13.9123 33.4845 13.5203 33.1625 13.5203Z" fill="#4F4F4F"/>
<path d="M33.1627 19.6453H21.4959C21.1739 19.6453 20.9126 20.0373 20.9126 20.5202C20.9126 21.0033 21.174 21.3952 21.4959 21.3952H33.1627C33.4847 21.3952 33.746 21.0032 33.746 20.5202C33.746 20.0372 33.4847 19.6453 33.1627 19.6453Z" fill="#4F4F4F"/>
</g>
<path d="M1.0626 43.3953H0.162598V36.3953H5.3126V43.3953H4.4126V37.1953H1.0626V43.3953ZM6.66299 45.3953V38.3953H7.46299V39.2953H7.51299C7.71299 38.9686 7.96299 38.7219 8.26299 38.5553C8.56299 38.3819 8.89632 38.2953 9.26299 38.2953C9.68299 38.2953 10.0563 38.4053 10.383 38.6253C10.7097 38.8453 10.963 39.1519 11.143 39.5453C11.323 39.9386 11.413 40.3886 11.413 40.8953C11.413 41.4019 11.323 41.8519 11.143 42.2453C10.963 42.6386 10.7097 42.9453 10.383 43.1653C10.0563 43.3853 9.68299 43.4953 9.26299 43.4953C8.89632 43.4953 8.56299 43.4119 8.26299 43.2453C7.96966 43.0786 7.73632 42.8453 7.56299 42.5453H7.51299V45.3953H6.66299ZM9.09299 42.7453C9.55299 42.7453 9.91299 42.5819 10.173 42.2553C10.433 41.9286 10.563 41.4753 10.563 40.8953C10.563 40.3153 10.433 39.8619 10.173 39.5353C9.91299 39.2086 9.55299 39.0453 9.09299 39.0453C8.61966 39.0453 8.23632 39.2153 7.94299 39.5553C7.65632 39.8886 7.51299 40.3353 7.51299 40.8953C7.51299 41.4553 7.65632 41.9053 7.94299 42.2453C8.23632 42.5786 8.61966 42.7453 9.09299 42.7453ZM14.3873 43.4953C13.9206 43.4953 13.5073 43.3853 13.1473 43.1653C12.794 42.9453 12.5173 42.6386 12.3173 42.2453C12.1173 41.8519 12.0173 41.4019 12.0173 40.8953C12.0173 40.3886 12.1173 39.9386 12.3173 39.5453C12.5173 39.1519 12.794 38.8453 13.1473 38.6253C13.5073 38.4053 13.9206 38.2953 14.3873 38.2953C14.854 38.2953 15.2673 38.4053 15.6273 38.6253C15.9873 38.8453 16.2673 39.1519 16.4673 39.5453C16.6673 39.9386 16.7673 40.3886 16.7673 40.8953C16.7673 41.4019 16.6673 41.8519 16.4673 42.2453C16.2673 42.6386 15.9873 42.9453 15.6273 43.1653C15.2673 43.3853 14.854 43.4953 14.3873 43.4953ZM14.3873 42.7453C14.8673 42.7453 15.2406 42.5819 15.5073 42.2553C15.7806 41.9219 15.9173 41.4686 15.9173 40.8953C15.9173 40.3219 15.7806 39.8719 15.5073 39.5453C15.2406 39.2119 14.8673 39.0453 14.3873 39.0453C13.914 39.0453 13.5406 39.2119 13.2673 39.5453C13.0006 39.8719 12.8673 40.3219 12.8673 40.8953C12.8673 41.4686 13.0006 41.9219 13.2673 42.2553C13.5406 42.5819 13.914 42.7453 14.3873 42.7453ZM21.6712 42.6453H22.5212V44.7953H21.7712V43.3953H17.7712V44.7953H17.0212V42.6453H17.5412C17.6945 42.4919 17.8045 42.2886 17.8712 42.0353C17.9379 41.7753 17.9845 41.3953 18.0112 40.8953L18.1412 38.3953H21.6712V42.6453ZM20.8212 42.6453V39.1453H18.9312L18.8412 40.9953C18.8212 41.4353 18.7779 41.7786 18.7112 42.0253C18.6445 42.2653 18.5312 42.4719 18.3712 42.6453H20.8212ZM24.949 42.7353L26.379 38.3953H27.229L24.849 45.3953H24.049L24.729 43.3953H24.299L22.529 38.3953H23.419L24.899 42.7353H24.949ZM29.6737 40.7553L32.1837 43.3953H31.0637L28.7337 40.9053V43.3953H27.8837V38.3953H28.7337V40.6853L30.8937 38.3953H31.9337L29.6737 40.7553ZM37.5384 44.7953H36.7884V43.3953H32.6884V38.3953H33.5384V42.6453H35.8384V38.3953H36.6884V42.6453H37.5384V44.7953ZM39.2141 43.3953H38.2841V38.3953H39.1141V42.1753H39.1641L41.6041 38.3953H42.5341V43.3953H41.7041V39.6153H41.6541L39.2141 43.3953ZM47.6333 38.3953V43.3953H46.7833V41.4953H45.5733L44.3133 43.3953H43.3333L44.7333 41.3953C44.4 41.2886 44.1333 41.1086 43.9333 40.8553C43.7333 40.5953 43.6333 40.3019 43.6333 39.9753C43.6333 39.6686 43.7066 39.3986 43.8533 39.1653C44.0066 38.9253 44.2133 38.7386 44.4733 38.6053C44.74 38.4653 45.0433 38.3953 45.3833 38.3953H47.6333ZM44.4833 39.9753C44.4833 40.2219 44.5666 40.4219 44.7333 40.5753C44.9066 40.7219 45.14 40.7953 45.4333 40.7953H46.7833V39.1453H45.4333C45.14 39.1453 44.9066 39.2219 44.7333 39.3753C44.5666 39.5219 44.4833 39.7219 44.4833 39.9753Z" fill="#303030"/>
<defs>
<clipPath id="clip0_587_2601">
<rect width="32" height="32" fill="white" transform="translate(8.9126 0.395264)"/>
</clipPath>
</defs>
</svg>
