<svg width="49" height="49" viewBox="0 0 49 49" fill="none" xmlns="http://www.w3.org/2000/svg">
<g clip-path="url(#clip0_587_2605)">
<path d="M35.3186 25.5444L30.0129 20.2386C31.4587 18.4703 32.1696 16.2138 31.9985 13.936C31.8273 11.6582 30.7873 9.53332 29.0934 8.00087C27.3995 6.46841 25.1814 5.64564 22.8979 5.70274C20.6144 5.75983 18.4401 6.69242 16.8249 8.30761C15.2098 9.92281 14.2772 12.097 14.2201 14.3805C14.163 16.664 14.9857 18.8821 16.5182 20.576C18.0507 22.2699 20.1755 23.31 22.4533 23.4812C24.7312 23.6523 26.9876 22.9414 28.756 21.4955L34.0617 26.8013C34.2294 26.9632 34.4539 27.0528 34.687 27.0508C34.92 27.0488 35.143 26.9553 35.3078 26.7905C35.4726 26.6257 35.5661 26.4027 35.5681 26.1696C35.5701 25.9366 35.4805 25.712 35.3186 25.5444ZM23.1346 21.7284C21.7282 21.7284 20.3533 21.3113 19.1839 20.53C18.0145 19.7486 17.103 18.638 16.5648 17.3386C16.0266 16.0392 15.8858 14.6094 16.1602 13.23C16.4345 11.8506 17.1118 10.5835 18.1063 9.58898C19.1008 8.59447 20.3679 7.9172 21.7473 7.64282C23.1267 7.36843 24.5565 7.50926 25.8559 8.04748C27.1553 8.58571 28.2659 9.49715 29.0473 10.6666C29.8287 11.836 30.2457 13.2108 30.2457 14.6173C30.2436 16.5026 29.4937 18.3101 28.1606 19.6433C26.8275 20.9764 25.02 21.7263 23.1346 21.7284Z" fill="#4F4F4F"/>
</g>
<path d="M12.2291 43.3953H11.3291V36.3953H16.4791V43.3953H15.5791V37.1953H12.2291V43.3953ZM19.8995 43.4953C19.4328 43.4953 19.0195 43.3853 18.6595 43.1653C18.3062 42.9453 18.0295 42.6386 17.8295 42.2453C17.6295 41.8519 17.5295 41.4019 17.5295 40.8953C17.5295 40.3886 17.6295 39.9386 17.8295 39.5453C18.0295 39.1519 18.3062 38.8453 18.6595 38.6253C19.0195 38.4053 19.4328 38.2953 19.8995 38.2953C20.3662 38.2953 20.7795 38.4053 21.1395 38.6253C21.4995 38.8453 21.7795 39.1519 21.9795 39.5453C22.1795 39.9386 22.2795 40.3886 22.2795 40.8953C22.2795 41.4019 22.1795 41.8519 21.9795 42.2453C21.7795 42.6386 21.4995 42.9453 21.1395 43.1653C20.7795 43.3853 20.3662 43.4953 19.8995 43.4953ZM19.8995 42.7453C20.3795 42.7453 20.7528 42.5819 21.0195 42.2553C21.2928 41.9219 21.4295 41.4686 21.4295 40.8953C21.4295 40.3219 21.2928 39.8719 21.0195 39.5453C20.7528 39.2119 20.3795 39.0453 19.8995 39.0453C19.4262 39.0453 19.0528 39.2119 18.7795 39.5453C18.5128 39.8719 18.3795 40.3219 18.3795 40.8953C18.3795 41.4686 18.5128 41.9219 18.7795 42.2553C19.0528 42.5819 19.4262 42.7453 19.8995 42.7453ZM24.1111 43.3953H23.1811V38.3953H24.0111V42.1753H24.0611L26.5011 38.3953H27.4311V43.3953H26.6011V39.6153H26.5511L24.1111 43.3953ZM30.7103 43.4953C30.2436 43.4953 29.8303 43.3853 29.4703 43.1653C29.1103 42.9453 28.8303 42.6386 28.6303 42.2453C28.4303 41.8519 28.3303 41.4019 28.3303 40.8953C28.3303 40.3886 28.4303 39.9386 28.6303 39.5453C28.8303 39.1519 29.1069 38.8453 29.4603 38.6253C29.8203 38.4053 30.2269 38.2953 30.6803 38.2953C31.1936 38.2953 31.6369 38.4319 32.0103 38.7053C32.3836 38.9786 32.6403 39.3586 32.7803 39.8453L32.0303 39.9853C31.9303 39.6853 31.7603 39.4553 31.5203 39.2953C31.2869 39.1286 31.0069 39.0453 30.6803 39.0453C30.2203 39.0453 29.8536 39.2086 29.5803 39.5353C29.3136 39.8619 29.1803 40.3153 29.1803 40.8953C29.1803 41.4753 29.3169 41.9286 29.5903 42.2553C29.8636 42.5819 30.2369 42.7453 30.7103 42.7453C31.0436 42.7453 31.3303 42.6653 31.5703 42.5053C31.8103 42.3386 31.9803 42.1053 32.0803 41.8053L32.8303 41.9453C32.6903 42.4319 32.4303 42.8119 32.0503 43.0853C31.6769 43.3586 31.2303 43.4953 30.7103 43.4953ZM35.4203 40.7553L37.9303 43.3953H36.8103L34.4803 40.9053V43.3953H33.6303V38.3953H34.4803V40.6853L36.6403 38.3953H37.6803L35.4203 40.7553Z" fill="#303030"/>
<defs>
<clipPath id="clip0_587_2605">
<rect width="21.3333" height="21.3333" fill="white" transform="translate(14.2456 5.72852)"/>
</clipPath>
</defs>
</svg>
