<svg width="238" height="54" viewBox="0 0 238 54" fill="none" xmlns="http://www.w3.org/2000/svg">
<g clip-path="url(#clip0_1813_4854)">
<rect width="238" height="53" transform="translate(0 0.5)" fill="#D7192D"/>
<path d="M238 0.5H0V53.5H238V0.5Z" fill="#D7192D"/>
<path d="M101.429 35.405H97.7803V10.8161H101.429V20.6649H103.917V10.8161H107.565V35.405H103.917V24.596H101.429V35.405ZM118.875 29.9194C118.875 33.3584 117.744 35.7051 114.221 35.7051H113.605C110.119 35.7051 108.887 33.3584 108.887 29.9194V16.2356C108.887 12.7967 110.113 10.582 113.57 10.582H114.186C117.738 10.582 118.869 12.8327 118.869 16.1996V29.9134L118.875 29.9194ZM115.16 16.0376C115.16 14.7832 114.742 14.153 113.898 14.153C112.96 14.153 112.607 14.7472 112.607 16.0376V30.1835C112.607 31.2398 112.9 32.068 113.934 32.068C114.969 32.068 115.16 31.2398 115.16 30.1835V16.0376ZM120.136 10.8161H125.89C128.892 10.8161 129.736 12.4366 129.736 14.8132V18.5823C129.736 20.6649 128.862 21.6251 127.923 21.9852C128.862 22.3513 130.023 23.1075 130.023 25.5862V30.9097C130.023 33.5205 128.892 35.405 126.147 35.405H120.136V10.8161ZM123.785 14.153V20.5328H124.885C125.884 20.5328 126.147 19.8366 126.147 18.8163V15.7075C126.147 14.6812 125.89 14.153 124.885 14.153H123.785ZM123.785 24.1998V31.936H124.885C126.051 31.936 126.309 31.3719 126.309 30.2855V25.7903C126.309 24.764 126.051 24.2058 124.885 24.2058H123.785V24.1998ZM136.775 30.7777H134.096L133.641 35.405H130.376L133.318 10.8161H137.648L140.782 35.405H137.259L136.775 30.7777ZM134.478 27.1107H136.386L135.417 18.0241L134.478 27.1107ZM146.823 25.0941L144.143 35.405H140.393L143.3 24.4339C141.972 24.0018 141.296 23.0115 141.296 21.4571V14.6152C141.296 11.8364 142.523 10.8161 144.981 10.8161H150.896V35.405H147.241V25.0941H146.823ZM147.241 14.153H146.272C145.142 14.153 144.945 14.6812 144.945 15.7375V19.7706C144.945 20.8629 145.268 21.5231 146.272 21.5231H147.241V14.153ZM156.386 10.8161H162.14C165.142 10.8161 165.985 12.4366 165.985 14.8132V18.5823C165.985 20.6649 165.112 21.6251 164.173 21.9852C165.112 22.3513 166.272 23.1075 166.272 25.5862V30.9097C166.272 33.5205 165.142 35.405 162.397 35.405H156.386V10.8161ZM160.034 14.153V20.5328H161.135C162.134 20.5328 162.397 19.8366 162.397 18.8163V15.7075C162.397 14.6812 162.14 14.153 161.135 14.153H160.034ZM160.034 24.1998V31.936H161.135C162.301 31.936 162.558 31.3719 162.558 30.2855V25.7903C162.558 24.764 162.301 24.2058 161.135 24.2058H160.034V24.1998ZM173.12 20.3348C175.608 20.3348 176.87 21.9552 176.87 24.86V31.1078C176.87 34.0486 175.704 35.405 173.12 35.405H167.337V10.8161H170.985V20.3348H173.12ZM171.924 31.834C172.989 31.834 173.186 31.1078 173.186 30.1475V25.6823C173.186 24.656 173.054 23.8998 171.924 23.8998H170.985V31.834H171.924ZM181.553 35.405H177.899V10.8161H181.553V35.405ZM188.892 24.698H192.48V30.3816C192.48 33.0283 191.607 35.7051 188.12 35.7051H187.313C183.599 35.7051 182.821 32.9923 182.821 30.5136V15.5094C182.821 12.9947 183.886 10.582 187.181 10.582H188.018C192.025 10.582 192.48 13.2948 192.48 15.7075V20.1007H188.892V15.7735C188.892 14.7172 188.569 14.153 187.665 14.153C186.762 14.153 186.535 14.6812 186.535 15.7735V30.3816C186.535 31.5039 186.924 32.068 187.701 32.068C188.575 32.068 188.898 31.4379 188.898 30.4176V24.698H188.892ZM203.527 29.9194C203.527 33.3584 202.396 35.7051 198.873 35.7051H198.257C194.771 35.7051 193.539 33.3584 193.539 29.9194V16.2356C193.539 12.7967 194.765 10.582 198.222 10.582H198.838C202.39 10.582 203.521 12.8327 203.521 16.1996V29.9134L203.527 29.9194ZM199.812 16.0376C199.812 14.7832 199.394 14.153 198.551 14.153C197.612 14.153 197.259 14.7472 197.259 16.0376V30.1835C197.259 31.2398 197.552 32.068 198.586 32.068C199.621 32.068 199.812 31.2398 199.812 30.1835V16.0376ZM214.029 10.8161V14.3871H210.961V35.405H207.342V14.3871H204.274V10.8161H214.035H214.029ZM219.908 30.7777H217.229L216.774 35.405H213.508L216.451 10.8161H220.781L223.915 35.405H220.392L219.908 30.7777ZM217.611 27.1107H219.519L218.55 18.0241L217.611 27.1107Z" fill="white"/>
<path d="M101.303 43.015C101.201 42.9249 101.088 42.8529 100.974 42.7989C101.082 42.7449 101.183 42.6729 101.273 42.5888C101.387 42.4868 101.482 42.3608 101.56 42.2107C101.638 42.0607 101.68 41.8806 101.68 41.6826C101.68 41.4545 101.626 41.2445 101.518 41.0584C101.417 40.8784 101.273 40.7223 101.094 40.6023C100.92 40.4823 100.723 40.3922 100.496 40.3322C100.274 40.2722 100.035 40.2422 99.7838 40.2422C99.3771 40.2422 99.0063 40.3202 98.6894 40.4702C98.3724 40.6203 98.1152 40.8123 97.9178 41.0404L97.8341 41.1424L98.3664 41.7426L98.48 41.6226C98.8209 41.2565 99.2336 41.0824 99.742 41.0824C99.8855 41.0824 100.029 41.1004 100.155 41.1304C100.28 41.1604 100.388 41.2085 100.478 41.2685C100.567 41.3285 100.633 41.3945 100.681 41.4785C100.729 41.5566 100.753 41.6466 100.753 41.7606C100.753 41.8746 100.729 41.9647 100.681 42.0427C100.633 42.1207 100.561 42.1867 100.478 42.2407C100.388 42.2948 100.274 42.3428 100.149 42.3668C100.017 42.3968 99.8735 42.4088 99.73 42.4088H98.5937V43.249H99.73C99.9035 43.249 100.059 43.267 100.202 43.297C100.34 43.327 100.46 43.3751 100.555 43.4291C100.645 43.4831 100.717 43.5551 100.771 43.6451C100.819 43.7292 100.848 43.8372 100.848 43.9572C100.848 44.1913 100.765 44.3713 100.585 44.5034C100.4 44.6474 100.125 44.7194 99.7779 44.7194C99.5027 44.7194 99.2396 44.6654 99.0004 44.5514C98.7611 44.4434 98.5757 44.2993 98.4501 44.1313L98.3425 43.9872L97.7803 44.5934L97.852 44.6954C97.9358 44.8155 98.0434 44.9355 98.175 45.0375C98.3006 45.1396 98.4501 45.2356 98.6236 45.3136C98.791 45.3916 98.9764 45.4516 99.1678 45.4937C99.3652 45.5357 99.5745 45.5597 99.7958 45.5597C100.083 45.5597 100.346 45.5237 100.579 45.4456C100.819 45.3676 101.028 45.2656 101.195 45.1276C101.369 44.9895 101.506 44.8275 101.602 44.6354C101.698 44.4434 101.746 44.2333 101.746 44.0052C101.746 43.7772 101.704 43.5911 101.614 43.4231C101.53 43.261 101.423 43.123 101.297 43.015H101.303Z" fill="white"/>
<path d="M104.15 40.3083L102.087 45.4638H103.104L103.534 44.3895H105.735L106.166 45.4638H107.183L105.107 40.3083H104.156H104.15ZM103.821 43.5493L104.629 41.5027L105.43 43.5493H103.821Z" fill="white"/>
<path d="M111.273 43.1231C111.177 43.0031 111.064 42.9011 110.938 42.8231C110.926 42.817 110.914 42.811 110.908 42.805C111.016 42.739 111.112 42.655 111.201 42.553C111.291 42.4449 111.363 42.3189 111.417 42.1749C111.47 42.0308 111.494 41.8748 111.494 41.7007C111.494 41.5027 111.458 41.3166 111.387 41.1426C111.315 40.9685 111.213 40.8185 111.082 40.6985C110.95 40.5784 110.789 40.4764 110.603 40.4104C110.418 40.3444 110.208 40.3083 109.987 40.3083H107.685V45.4638H110.041C110.28 45.4638 110.496 45.4278 110.681 45.3618C110.872 45.2897 111.034 45.1877 111.171 45.0617C111.309 44.9296 111.411 44.7736 111.482 44.5935C111.554 44.4135 111.59 44.2214 111.59 44.0054C111.59 43.8433 111.56 43.6813 111.506 43.5312C111.452 43.3812 111.375 43.2432 111.279 43.1291L111.273 43.1231ZM108.582 41.1486H109.88C110.113 41.1486 110.28 41.2086 110.394 41.3286C110.508 41.4547 110.561 41.6047 110.561 41.7848C110.561 41.9648 110.508 42.1149 110.394 42.2349C110.28 42.3549 110.113 42.4089 109.88 42.4089H108.582V41.1486ZM110.472 44.4435C110.34 44.5635 110.161 44.6236 109.909 44.6236H108.582V43.2552H109.909C110.041 43.2552 110.149 43.2732 110.244 43.3152C110.334 43.3512 110.412 43.4052 110.472 43.4652C110.531 43.5252 110.573 43.5973 110.609 43.6753C110.639 43.7593 110.657 43.8493 110.657 43.9394C110.657 44.1614 110.597 44.3235 110.472 44.4435Z" fill="white"/>
<path d="M116.685 40.9923C116.464 40.7523 116.189 40.5602 115.878 40.4282C115.567 40.2961 115.214 40.2241 114.837 40.2241C114.46 40.2241 114.113 40.2901 113.796 40.4282C113.485 40.5602 113.21 40.7523 112.989 40.9923C112.768 41.2324 112.588 41.5145 112.469 41.8386C112.349 42.1627 112.283 42.5108 112.283 42.8889C112.283 43.267 112.343 43.6211 112.469 43.9392C112.594 44.2633 112.768 44.5453 112.989 44.7854C113.21 45.0255 113.485 45.2175 113.796 45.3496C114.107 45.4816 114.46 45.5536 114.837 45.5536C115.214 45.5536 115.561 45.4876 115.878 45.3496C116.189 45.2175 116.464 45.0255 116.685 44.7854C116.906 44.5453 117.086 44.2633 117.205 43.9392C117.325 43.6151 117.391 43.267 117.391 42.8889C117.391 42.5108 117.331 42.1567 117.205 41.8386C117.086 41.5145 116.906 41.2324 116.685 40.9923ZM116.344 43.6211C116.266 43.8431 116.153 44.0352 116.015 44.1972C115.878 44.3593 115.704 44.4853 115.507 44.5753C115.309 44.6654 115.082 44.7134 114.837 44.7134C114.592 44.7134 114.365 44.6654 114.161 44.5753C113.964 44.4853 113.79 44.3593 113.653 44.1972C113.509 44.0352 113.402 43.8431 113.324 43.6211C113.246 43.399 113.21 43.1529 113.21 42.8889C113.21 42.6248 113.246 42.3787 113.324 42.1507C113.402 41.9286 113.509 41.7365 113.647 41.5745C113.784 41.4185 113.958 41.2924 114.155 41.2024C114.353 41.1124 114.58 41.0644 114.831 41.0644C115.082 41.0644 115.303 41.1124 115.501 41.2024C115.698 41.2924 115.872 41.4185 116.009 41.5745C116.153 41.7305 116.26 41.9286 116.338 42.1507C116.416 42.3787 116.458 42.6248 116.458 42.8889C116.458 43.1529 116.416 43.399 116.338 43.6211H116.344Z" fill="white"/>
<path d="M122.344 40.3083H119.102L118.791 42.8771C118.737 43.2792 118.678 43.6093 118.618 43.8493C118.558 44.0774 118.486 44.2575 118.403 44.3775C118.331 44.4855 118.247 44.5635 118.157 44.5996C118.062 44.6416 117.948 44.6656 117.816 44.6776L117.673 44.6896V46.364H118.576V45.4698H121.877V46.364H122.78V44.6296H122.338V40.3144L122.344 40.3083ZM121.441 44.6236H119.15C119.24 44.5035 119.318 44.3655 119.389 44.2034C119.521 43.9034 119.617 43.4892 119.682 42.9611L119.904 41.1486H121.441V44.6236Z" fill="white"/>
<path d="M129.21 43.1231C129.114 43.0031 129 42.9011 128.875 42.8231C128.863 42.817 128.851 42.811 128.845 42.805C128.952 42.739 129.048 42.655 129.138 42.553C129.228 42.4449 129.299 42.3189 129.353 42.1749C129.407 42.0308 129.431 41.8748 129.431 41.7007C129.431 41.5027 129.395 41.3166 129.323 41.1426C129.251 40.9685 129.15 40.8185 129.018 40.6985C128.887 40.5784 128.725 40.4764 128.54 40.4104C128.354 40.3444 128.145 40.3083 127.924 40.3083H125.621V45.4638H127.978C128.217 45.4638 128.432 45.4278 128.617 45.3618C128.809 45.2897 128.97 45.1877 129.108 45.0617C129.245 44.9296 129.347 44.7736 129.419 44.5935C129.491 44.4135 129.527 44.2214 129.527 44.0054C129.527 43.8433 129.497 43.6813 129.443 43.5312C129.389 43.3812 129.311 43.2432 129.216 43.1291L129.21 43.1231ZM126.518 41.1486H127.816C128.049 41.1486 128.217 41.2086 128.33 41.3286C128.444 41.4547 128.498 41.6047 128.498 41.7848C128.498 41.9648 128.444 42.1149 128.33 42.2349C128.217 42.3549 128.049 42.4089 127.816 42.4089H126.518V41.1486ZM128.408 44.4435C128.277 44.5635 128.097 44.6236 127.846 44.6236H126.518V43.2552H127.846C127.978 43.2552 128.085 43.2732 128.181 43.3152C128.271 43.3512 128.348 43.4052 128.408 43.4652C128.468 43.5252 128.51 43.5973 128.546 43.6753C128.576 43.7593 128.594 43.8493 128.594 43.9394C128.594 44.1614 128.534 44.3235 128.408 44.4435Z" fill="white"/>
<path d="M135.309 40.3083H134.406V45.4638H135.309V40.3083Z" fill="white"/>
<path d="M133.743 42.7149C133.6 42.5648 133.42 42.4508 133.217 42.3668C133.013 42.2828 132.774 42.2408 132.523 42.2408H131.333V40.3142H130.43V45.4697H132.523C132.786 45.4697 133.019 45.4276 133.223 45.3436C133.432 45.2596 133.605 45.1396 133.749 44.9895C133.893 44.8395 134 44.6654 134.072 44.4734C134.144 44.2813 134.186 44.0713 134.186 43.8552C134.186 43.6391 134.15 43.4291 134.072 43.237C133.994 43.039 133.887 42.8649 133.743 42.7209V42.7149ZM133.043 44.4134C132.894 44.5574 132.702 44.6234 132.445 44.6234H131.327V43.081H132.445C132.696 43.081 132.894 43.153 133.043 43.291C133.193 43.4351 133.259 43.6151 133.259 43.8492C133.259 44.0833 133.187 44.2693 133.043 44.4074V44.4134Z" fill="white"/>
<path d="M140.035 44.0713C139.909 44.2573 139.736 44.4134 139.526 44.5334C139.317 44.6534 139.084 44.7134 138.833 44.7134C138.581 44.7134 138.36 44.6714 138.151 44.5814C137.941 44.4914 137.762 44.3653 137.613 44.2093C137.463 44.0473 137.337 43.8552 137.254 43.6331C137.164 43.4111 137.122 43.159 137.122 42.8949C137.122 42.6309 137.164 42.3728 137.254 42.1507C137.337 41.9287 137.463 41.7366 137.613 41.5806C137.762 41.4245 137.947 41.2985 138.151 41.2085C138.36 41.1184 138.587 41.0764 138.833 41.0764C139.078 41.0764 139.311 41.1364 139.52 41.2565C139.736 41.3765 139.909 41.5325 140.035 41.7186L140.112 41.8326L140.89 41.4005L140.794 41.2625C140.693 41.1184 140.573 40.9864 140.447 40.8604C140.316 40.7343 140.166 40.6263 140.005 40.5363C139.843 40.4402 139.664 40.3682 139.467 40.3202C139.275 40.2662 139.06 40.2422 138.839 40.2422C138.474 40.2422 138.127 40.3082 137.81 40.4342C137.493 40.5603 137.206 40.7463 136.973 40.9804C136.733 41.2145 136.542 41.4965 136.41 41.8266C136.273 42.1507 136.207 42.5168 136.207 42.9069C136.207 43.297 136.273 43.6631 136.41 43.9872C136.548 44.3113 136.733 44.5934 136.973 44.8335C137.212 45.0675 137.493 45.2536 137.81 45.3796C138.127 45.5057 138.474 45.5717 138.839 45.5717C139.293 45.5717 139.688 45.4697 140.011 45.2776C140.322 45.0855 140.591 44.8395 140.806 44.5514L140.908 44.4134L140.118 43.9812L140.041 44.0953L140.035 44.0713Z" fill="white"/>
<path d="M145.74 40.9923C145.518 40.7523 145.243 40.5602 144.932 40.4282C144.621 40.2961 144.268 40.2241 143.892 40.2241C143.515 40.2241 143.168 40.2901 142.851 40.4282C142.54 40.5602 142.265 40.7523 142.044 40.9923C141.822 41.2324 141.643 41.5145 141.523 41.8386C141.404 42.1627 141.338 42.5108 141.338 42.8889C141.338 43.267 141.398 43.6211 141.523 43.9392C141.649 44.2633 141.822 44.5453 142.044 44.7854C142.265 45.0255 142.54 45.2175 142.851 45.3496C143.162 45.4816 143.515 45.5536 143.892 45.5536C144.268 45.5536 144.615 45.4876 144.932 45.3496C145.243 45.2175 145.518 45.0255 145.74 44.7854C145.961 44.5453 146.14 44.2633 146.26 43.9392C146.38 43.6151 146.445 43.267 146.445 42.8889C146.445 42.5108 146.386 42.1567 146.26 41.8386C146.14 41.5145 145.961 41.2324 145.74 40.9923ZM145.399 43.6211C145.321 43.8431 145.207 44.0352 145.07 44.1972C144.932 44.3593 144.759 44.4853 144.562 44.5753C144.364 44.6654 144.137 44.7134 143.892 44.7134C143.646 44.7134 143.419 44.6654 143.216 44.5753C143.018 44.4853 142.845 44.3593 142.707 44.1972C142.564 44.0352 142.456 43.8431 142.379 43.6211C142.301 43.399 142.265 43.1529 142.265 42.8889C142.265 42.6248 142.301 42.3787 142.379 42.1507C142.456 41.9286 142.564 41.7365 142.702 41.5745C142.839 41.4185 143.013 41.2924 143.21 41.2024C143.407 41.1124 143.635 41.0644 143.886 41.0644C144.137 41.0644 144.358 41.1124 144.556 41.2024C144.753 41.2924 144.926 41.4185 145.064 41.5745C145.207 41.7305 145.315 41.9286 145.393 42.1507C145.471 42.3787 145.512 42.6248 145.512 42.8889C145.512 43.1529 145.471 43.399 145.393 43.6211H145.399Z" fill="white"/>
<path d="M146.799 41.1486H148.33V45.4638H149.233V41.1486H150.77V40.3083H146.799V41.1486Z" fill="white"/>
<path d="M154.945 42.3969H152.421V40.3083H151.518V45.4638H152.421V43.2372H154.945V45.4638H155.848V40.3083H154.945V42.3969Z" fill="white"/>
<path d="M161.81 40.3083H160.907V45.4638H161.81V40.3083Z" fill="white"/>
<path d="M160.244 42.7149C160.1 42.5648 159.921 42.4508 159.718 42.3668C159.514 42.2828 159.275 42.2408 159.024 42.2408H157.834V40.3142H156.931V45.4697H159.024C159.287 45.4697 159.52 45.4276 159.724 45.3436C159.933 45.2596 160.106 45.1396 160.25 44.9895C160.394 44.8395 160.501 44.6654 160.573 44.4734C160.645 44.2813 160.687 44.0713 160.687 43.8552C160.687 43.6391 160.651 43.4291 160.573 43.237C160.495 43.039 160.388 42.8649 160.244 42.7209V42.7149ZM159.544 44.4134C159.395 44.5574 159.203 44.6234 158.946 44.6234H157.828V43.081H158.946C159.197 43.081 159.395 43.153 159.544 43.291C159.694 43.4351 159.76 43.6151 159.76 43.8492C159.76 44.0833 159.688 44.2693 159.544 44.4074V44.4134Z" fill="white"/>
<path d="M167.301 40.3083H166.188L164.837 42.1449L163.473 40.3083H162.367L164.256 42.8231L162.253 45.4638H163.365L164.837 43.5012L166.302 45.4638H167.408L165.417 42.8171L167.301 40.3083Z" fill="white"/>
<path d="M173.958 40.3083H172.803L170.884 42.559V40.3083H169.98V45.4638H170.884V43.7413L171.213 43.3632L172.983 45.4638H174.131L171.811 42.769L173.958 40.3083Z" fill="white"/>
<path d="M178.395 40.9923C178.174 40.7523 177.899 40.5602 177.588 40.4282C177.277 40.2961 176.924 40.2241 176.547 40.2241C176.17 40.2241 175.823 40.2901 175.506 40.4282C175.195 40.5602 174.92 40.7523 174.699 40.9923C174.478 41.2324 174.298 41.5145 174.179 41.8386C174.059 42.1627 173.993 42.5108 173.993 42.8889C173.993 43.267 174.053 43.6211 174.179 43.9392C174.304 44.2633 174.478 44.5453 174.699 44.7854C174.92 45.0255 175.195 45.2175 175.506 45.3496C175.817 45.4816 176.17 45.5536 176.547 45.5536C176.924 45.5536 177.271 45.4876 177.588 45.3496C177.899 45.2175 178.174 45.0255 178.395 44.7854C178.616 44.5453 178.796 44.2633 178.915 43.9392C179.035 43.6151 179.101 43.267 179.101 42.8889C179.101 42.5108 179.041 42.1567 178.915 41.8386C178.79 41.5145 178.616 41.2324 178.395 40.9923ZM178.054 43.6211C177.976 43.8431 177.863 44.0352 177.725 44.1972C177.588 44.3593 177.414 44.4853 177.217 44.5753C177.019 44.6654 176.792 44.7134 176.547 44.7134C176.302 44.7134 176.074 44.6654 175.871 44.5753C175.674 44.4853 175.5 44.3593 175.363 44.1972C175.219 44.0352 175.112 43.8431 175.034 43.6211C174.956 43.399 174.92 43.1529 174.92 42.8889C174.92 42.6248 174.956 42.3787 175.034 42.1507C175.112 41.9286 175.219 41.7365 175.357 41.5745C175.494 41.4185 175.668 41.2924 175.865 41.2024C176.063 41.1124 176.29 41.0644 176.541 41.0644C176.792 41.0644 177.013 41.1124 177.211 41.2024C177.408 41.2924 177.582 41.4185 177.719 41.5745C177.863 41.7305 177.97 41.9286 178.048 42.1507C178.126 42.3787 178.168 42.6248 178.168 42.8889C178.168 43.1529 178.126 43.399 178.048 43.6211H178.054Z" fill="white"/>
<path d="M183.419 42.3969H180.889V40.3083H179.986V45.4638H180.889V43.2372H183.419V45.4638H184.322V40.3083H183.419V42.3969Z" fill="white"/>
<path d="M189.041 44.0713C188.915 44.2573 188.742 44.4134 188.532 44.5334C188.323 44.6534 188.09 44.7134 187.838 44.7134C187.587 44.7134 187.366 44.6714 187.157 44.5814C186.947 44.4914 186.768 44.3653 186.618 44.2093C186.469 44.0473 186.343 43.8552 186.26 43.6331C186.17 43.4111 186.128 43.159 186.128 42.8949C186.128 42.6309 186.17 42.3728 186.26 42.1507C186.343 41.9287 186.469 41.7366 186.618 41.5806C186.768 41.4245 186.953 41.2985 187.157 41.2085C187.366 41.1184 187.593 41.0764 187.838 41.0764C188.084 41.0764 188.317 41.1364 188.526 41.2565C188.742 41.3765 188.915 41.5325 189.041 41.7186L189.118 41.8326L189.896 41.4005L189.8 41.2625C189.698 41.1184 189.579 40.9864 189.453 40.8604C189.322 40.7343 189.172 40.6263 189.011 40.5363C188.849 40.4402 188.67 40.3682 188.472 40.3202C188.281 40.2662 188.066 40.2422 187.844 40.2422C187.48 40.2422 187.133 40.3082 186.816 40.4342C186.499 40.5603 186.212 40.7463 185.978 40.9804C185.739 41.2145 185.548 41.4965 185.416 41.8266C185.279 42.1507 185.213 42.5168 185.213 42.9069C185.213 43.297 185.279 43.6631 185.416 43.9872C185.554 44.3113 185.739 44.5934 185.978 44.8335C186.218 45.0675 186.499 45.2536 186.816 45.3796C187.133 45.5057 187.48 45.5717 187.844 45.5717C188.299 45.5717 188.694 45.4697 189.017 45.2776C189.328 45.0855 189.597 44.8395 189.812 44.5514L189.914 44.4134L189.124 43.9812L189.047 44.0953L189.041 44.0713Z" fill="white"/>
<path d="M190.213 41.1486H191.744V45.4638H192.647V41.1486H194.184V40.3083H190.213V41.1486Z" fill="white"/>
<path d="M198.252 40.7885C198.108 40.6384 197.935 40.5244 197.726 40.4344C197.522 40.3504 197.283 40.3083 197.026 40.3083H194.933V45.4638H195.836V43.5373H197.026C197.283 43.5373 197.516 43.4952 197.72 43.4112C197.929 43.3272 198.102 43.2072 198.246 43.0631C198.39 42.9131 198.503 42.739 198.575 42.547C198.647 42.3549 198.689 42.1449 198.689 41.9288C198.689 41.7127 198.653 41.5027 198.575 41.3106C198.503 41.1186 198.39 40.9445 198.252 40.7945V40.7885ZM197.546 42.481C197.397 42.625 197.205 42.691 196.948 42.691H195.83V41.1486H196.948C197.199 41.1486 197.397 41.2206 197.546 41.3586C197.696 41.5027 197.762 41.6827 197.762 41.9168C197.762 42.1509 197.69 42.3369 197.546 42.475V42.481Z" fill="white"/>
<path d="M201.218 43.1291L199.794 40.3083H198.76L200.698 44.0054L200.65 44.1014C200.584 44.2214 200.524 44.3295 200.47 44.4135C200.422 44.4855 200.375 44.5515 200.321 44.5935C200.273 44.6356 200.225 44.6656 200.171 44.6836C200.117 44.7016 200.052 44.7136 199.968 44.7136C199.86 44.7136 199.765 44.6896 199.675 44.6416C199.579 44.5875 199.489 44.5155 199.418 44.4375L199.274 44.2815L198.873 45.0377L198.933 45.1157C199.035 45.2477 199.184 45.3558 199.376 45.4398C199.561 45.5178 199.771 45.5598 199.992 45.5598C200.183 45.5598 200.351 45.5358 200.494 45.4878C200.638 45.4398 200.769 45.3678 200.883 45.2717C200.997 45.1817 201.098 45.0677 201.188 44.9416C201.272 44.8216 201.355 44.6836 201.439 44.5335L203.67 40.3144H202.635L201.212 43.1351L201.218 43.1291Z" fill="white"/>
<path d="M208.132 40.3083H206.971L205.052 42.559V40.3083H204.148V45.4638H205.052V43.7413L205.386 43.3632L207.151 45.4638H208.299L205.979 42.769L208.132 40.3083Z" fill="white"/>
<path d="M213.09 40.3083H212.187V44.6236H209.657V40.3083H208.754V45.4638H212.629V46.358H213.533V44.6236H213.09V40.3083Z" fill="white"/>
<path d="M215.147 43.7893V40.3083H214.244V45.4638H215.052L217.647 41.9048V45.4638H218.55V40.3083H217.707L215.147 43.7893Z" fill="white"/>
<path d="M220.985 40.1462C221.224 40.2722 221.493 40.3322 221.774 40.3322C222.055 40.3322 222.324 40.2662 222.564 40.1462C222.803 40.0201 223.006 39.8461 223.162 39.63L223.246 39.516L222.743 39.0779L222.647 39.2219C222.552 39.366 222.426 39.48 222.277 39.558C222.127 39.636 221.96 39.678 221.774 39.678C221.589 39.678 221.415 39.636 221.266 39.558C221.116 39.474 220.991 39.36 220.889 39.2219L220.793 39.0899L220.291 39.522L220.375 39.636C220.536 39.8521 220.74 40.0261 220.979 40.1462H220.985Z" fill="white"/>
<path d="M223.09 40.3083L220.53 43.7893V40.3083H219.627V45.4638H220.434L223.024 41.9048V45.4638H223.933V40.3083H223.09Z" fill="white"/>
<path d="M227.546 12.6287C227.546 13.1328 227.373 13.5589 227.02 13.913C226.667 14.2671 226.242 14.4412 225.74 14.4412C225.237 14.4412 224.813 14.2671 224.46 13.913C224.107 13.5589 223.934 13.1328 223.934 12.6287C223.934 12.1245 224.107 11.6984 224.46 11.3443C224.813 10.9902 225.237 10.8162 225.74 10.8162C226.242 10.8162 226.673 10.9902 227.02 11.3443C227.367 11.6924 227.546 12.1245 227.546 12.6287ZM227.247 12.6287C227.247 12.2086 227.103 11.8485 226.81 11.5544C226.517 11.2603 226.158 11.1162 225.74 11.1162C225.321 11.1162 224.962 11.2603 224.669 11.5544C224.376 11.8485 224.233 12.2086 224.233 12.6287C224.233 13.0488 224.382 13.4029 224.675 13.697C224.968 13.9911 225.327 14.1411 225.74 14.1411C226.152 14.1411 226.511 13.9911 226.804 13.697C227.097 13.4029 227.247 13.0428 227.247 12.6287ZM226.607 13.673H226.224L225.686 12.8507H225.351V13.673H225.034V11.5964H225.877C226.057 11.5964 226.218 11.6564 226.362 11.7764C226.505 11.8965 226.577 12.0465 226.577 12.2326C226.577 12.4306 226.511 12.5867 226.386 12.6887C226.26 12.7967 226.146 12.8447 226.051 12.8447L226.607 13.673ZM226.26 12.2266C226.26 12.1185 226.224 12.0285 226.146 11.9625C226.069 11.8965 225.985 11.8605 225.889 11.8605H225.363V12.5807H225.889C225.985 12.5807 226.075 12.5506 226.146 12.4846C226.224 12.4186 226.26 12.3346 226.26 12.2326V12.2266Z" fill="white"/>
<path d="M82.7991 42.835C82.3087 42.871 82.3027 43.1171 82.3027 43.2791C82.4762 43.4412 82.6855 43.6152 82.8649 43.7893C83.6006 43.7353 83.5348 42.787 82.7991 42.835Z" fill="white"/>
<path d="M74.8623 36.9052C74.7606 36.9473 74.6589 36.9953 74.5453 37.0493C74.4556 37.0853 70.1614 39.2399 68.415 40.0261C68.3671 40.0921 69.2403 40.2782 69.4676 40.1522C70.6279 39.66 73.0979 38.6817 74.001 38.6817C74.3479 37.6314 75.5859 37.3194 75.3288 36.4431C75.2151 36.5752 75.1015 36.6532 74.8682 36.9052H74.8623Z" fill="white"/>
<path d="M82.8643 41.8748C83.6 41.8087 83.5342 40.8725 82.7986 40.9205C82.5414 40.9385 82.3799 41.0705 82.3141 41.2266C82.2543 41.3706 82.6969 41.1065 82.8643 41.8688V41.8748Z" fill="white"/>
<path d="M76.4414 18.9483C75.5024 19.4344 74.4139 21.8291 74.6591 21.7511C74.695 21.7391 75.5921 21.463 75.927 21.355C76.0167 21.325 76.232 19.7045 76.7882 19.0983C76.8122 19.0743 76.5251 18.9063 76.4414 18.9423V18.9483Z" fill="white"/>
<path d="M94.9638 44.2033C94.5571 43.135 93.337 40.8004 92.7628 39.642C92.5416 39.1979 91.5547 38.7898 91.0703 38.6698C89.7246 38.3397 88.3969 37.9556 87.0572 37.5895C86.7402 37.4994 86.4172 37.4214 86.1002 37.3314C85.7833 37.2173 85.4902 37.1153 85.245 37.0193C85.0895 36.8392 84.8742 35.963 84.7366 35.873C84.5811 35.7709 84.4077 35.6629 84.1984 35.6269C84.2163 35.2788 84.1804 34.3485 84.1505 33.8144C84.3897 33.4423 84.7486 33.2082 84.8921 32.7701C85.0895 32.1759 85.2271 31.4797 85.3227 30.8676C85.4603 30.0393 85.55 29.1571 85.6158 28.3229C85.6637 27.7107 85.8012 27.3086 85.873 27.0745V27.0625C85.9986 26.7564 86.3395 25.6401 85.9328 25.5381C85.8849 25.5261 85.8849 25.4541 85.8909 25.412C85.9029 25.328 85.9866 24.2777 85.9866 24.2537C85.9866 24.2957 86.6744 24.2237 86.7581 23.5275C86.8 23.1854 86.4651 22.7833 86.1421 22.5732C86.1601 22.4172 86.1062 22.0031 86.0823 21.847C86.0345 21.517 85.9627 21.1508 85.7773 20.8688C85.6756 20.7067 85.3706 20.6587 85.2689 20.6587C84.5871 19.4584 83.5106 17.6219 82.8228 17.5378C82.6075 17.5138 82.0632 17.3398 81.8479 17.3518C81.8419 17.3518 81.4173 17.1717 81.0644 17.0697C80.885 17.0157 80.6876 16.9857 80.4723 16.9617V10.6599H79.2223V13.1746H65.4785V10.6599H64.2285V45.8058C64.3003 45.8058 64.4857 45.8058 64.4857 45.8058C64.4857 45.8058 64.6173 43.6992 64.7429 43.4231C64.9522 42.961 65.1137 42.4988 65.4785 41.9647V39.528H68.116C68.8337 39.1799 69.8505 38.6878 70.7356 38.2736H65.4785V33.2442H76.5729C76.6087 33.9284 76.6626 34.8887 76.4951 35.4228C76.3575 35.4949 75.604 35.885 75.5442 35.993C75.4724 36.119 75.586 36.2211 75.6458 36.3291C76.1123 37.1993 78.9951 41.0944 79.324 41.4725C79.3001 40.7823 80.4185 40.9804 79.8384 40.4943C78.8396 39.654 75.8611 36.5272 75.7714 36.053C75.7714 36.053 76.0585 35.795 76.4233 35.5669C76.5669 35.4769 76.4353 35.6689 76.543 35.7229C76.7164 36.1791 77.3982 36.8632 77.0633 35.7229C76.7284 34.5646 76.7583 33.2382 76.7822 32.8901C77.1291 33.3103 77.7212 33.8024 78.3013 34.0125C78.403 34.0485 78.9293 33.9404 78.8097 33.9164C78.5525 33.8684 77.458 33.2382 77.1949 33.0282C76.9317 32.8181 75.5681 30.2614 75.4425 29.7753C75.4544 29.7393 75.4485 29.7032 75.4245 29.6612C75.2631 29.3852 75.0119 29.2051 74.7726 29.001C74.0131 28.1548 73.9413 27.4526 73.9114 27.0865C73.8875 26.8344 73.9174 26.5824 74.025 26.3963C74.1506 26.1743 74.2643 26.2583 74.4078 26.5644C74.5095 26.7864 74.5334 27.0505 74.659 27.2606C74.7128 27.3506 74.8803 27.3446 74.8982 27.2306C74.9401 26.9185 74.8324 26.5524 74.7009 26.2763C74.647 26.1563 74.5274 25.9462 74.2882 26.0182C74.1686 26.0782 74.0729 26.1743 74.0131 26.2883C74.0789 26.1683 74.1746 26.0662 74.3121 26.0062C74.3779 25.9762 74.4138 25.9102 74.4078 25.8382C74.4078 25.8082 74.4078 25.7721 74.4018 25.7361H65.4905V20.7247H74.3959C74.3959 20.7247 74.3959 20.7187 74.3959 20.7127C74.0729 21.4029 73.8755 21.9551 73.7978 22.0151C73.5884 22.1651 73.3612 22.3032 73.3672 22.5913C73.3731 23.2214 73.3971 23.9416 73.415 24.3617C73.4329 24.7038 73.7978 24.8419 74.354 24.8419C74.354 24.8779 74.3899 25.6701 74.4198 25.9702C74.7906 25.7181 74.5454 25.9702 74.4616 24.7879C73.8516 24.7879 73.5825 24.7038 73.732 24.3978C73.8038 24.2477 73.9413 24.1457 74.0669 24.0317C74.0908 24.0377 74.1148 24.0317 74.1447 24.0016C74.5992 23.5635 76.3934 22.9213 76.9138 22.7773C76.9736 22.7593 77.0214 22.7053 77.0214 22.6513C77.0214 22.5612 76.9197 22.5072 76.842 22.5312C76.4413 22.6513 75.5083 22.9754 75.2631 23.0414C75.0059 23.1134 74.8863 22.8253 74.8683 22.7893C74.8444 22.7533 74.8265 22.7233 74.8085 22.6873C74.7786 22.6213 74.7009 22.5913 74.6351 22.6273C74.3121 22.7893 74.0729 22.9394 74.0191 22.9754C73.9234 23.0414 73.9054 23.5515 73.9712 23.8396C73.7858 23.9476 73.6662 24.0557 73.5466 24.1937C73.5286 23.7676 73.5825 23.3595 73.5825 22.7953C73.5825 22.4832 73.6722 22.2071 73.9832 22.0271C74.1566 21.9071 74.8324 19.4584 76.1841 18.3841C76.8599 18.5461 78.9951 18.7562 79.9281 21.3009C80.0178 21.541 80.0357 20.4907 79.0609 19.3083C78.4329 18.5401 77.3922 18.3601 76.3456 18.102C76.6506 17.4958 77.5537 17.3398 79.2283 17.1897C82.3922 16.9077 83.1577 19.1283 83.7139 21.1088C83.8096 19.6624 82.7809 17.958 81.8958 17.5678C82.1051 17.5798 82.3742 17.6579 82.5716 17.6819C83.2175 17.7599 84.1027 19.3023 84.7964 20.5027C84.8383 20.5747 84.2342 20.6047 84.2761 20.6767C84.3778 20.6767 85.568 20.8628 85.6696 21.0248C85.9747 21.5049 86.2557 22.6273 86.0763 22.6033C81.2618 22.0271 78.8216 22.9033 78.0681 23.0414C78.3491 22.9994 78.6243 22.9574 78.9054 22.9153C81.2857 22.6633 83.5584 22.7293 85.9447 22.9514C87.0153 23.1074 86.8837 24.1997 85.9447 24.2717C85.5799 24.2297 85.9806 24.3017 85.8491 25.406C85.8371 25.5201 85.9089 25.8982 85.9208 25.9402C86.0584 26.5344 85.6397 27.0565 85.5022 29.1331C85.4842 29.3972 85.245 29.3491 85.245 29.1331C85.245 29.1331 85.4424 26.3903 85.4364 26.2823V26.2403C85.5022 24.5418 84.7665 24.1937 84.5333 24.1817C84.0488 24.1457 83.3012 24.0977 82.2247 24.0437C81.0285 23.9836 79.324 24.1577 77.7331 24.3617C77.7271 24.3677 77.7212 24.3798 77.7092 24.3858C77.775 24.5238 77.781 24.5418 77.8468 24.6798L78.1279 24.6678C78.4568 24.6558 80.2869 24.5238 80.8132 24.5418C80.9269 24.5418 81.1661 25.286 81.1242 25.34C81.1242 25.352 80.6099 25.8862 80.3826 26.1082C80.2092 26.2823 80.0357 26.4623 79.7905 26.5224C79.4915 26.5944 79.1506 26.5824 78.8396 26.6004C78.5226 26.6184 78.2056 26.6244 77.8886 26.6604C77.8348 26.6664 77.781 26.6844 77.7391 26.7144C77.7152 26.7324 77.6913 26.7504 77.6793 26.7804C77.5417 27.0385 77.2965 27.8007 77.3444 27.9388C77.4042 28.1188 78.5824 28.1548 78.7558 28.1548C79.0668 28.1548 79.4795 28.4129 79.4556 28.5929C79.3958 29.0371 78.8037 29.1511 78.696 29.5772C78.6482 29.7633 78.7319 29.9553 78.7977 30.1234C78.8575 30.2734 78.9113 30.4294 78.9712 30.5795L79.3121 31.4977C79.4257 31.8038 79.5214 32.1219 79.6649 32.416C79.8264 32.7521 80.1494 32.7461 80.4723 32.7401C81.0525 32.7221 81.6326 32.6741 82.2127 32.6261C83.062 32.56 82.8766 33.0222 82.9125 33.4783C82.135 33.7724 82.0034 34.5046 83.1218 34.0365C83.4866 33.8864 83.6541 34.0965 83.7139 34.0965C83.2235 34.3786 81.7642 35.1468 81.2797 35.4348C80.9089 35.6569 80.8132 36.101 80.5919 36.5632C80.4006 36.9713 80.574 37.2894 80.9149 37.6855C80.9269 37.6975 80.9388 37.7095 80.9508 37.7155C81.2558 38.0696 82.1051 38.9518 82.5596 39.714C82.6434 39.8101 82.7689 39.7621 82.8407 39.648C83.672 38.2436 83.7618 36.4251 84.1924 36.113C84.2163 36.1911 84.2402 36.2631 84.2582 36.3351C84.1326 37.4274 83.8096 39.0599 83.6242 39.594C83.5405 39.8401 83.7677 40.4403 83.8814 40.6803C84.0728 41.2505 84.3359 41.7966 84.4974 42.3788C84.5273 42.4928 84.7247 42.4748 84.7067 42.3488C84.6828 42.1327 84.6589 41.9167 84.6409 41.7066C84.6409 41.7066 84.6409 41.7006 84.6409 41.6946C84.6409 41.6526 84.6409 41.6166 84.6409 41.5746C84.7007 41.1004 84.7845 40.6263 84.8682 40.1522C85.0835 39.2879 85.2271 38.2016 85.257 37.3074C86.7581 37.6675 90.3047 38.7898 91.3514 40.5723C92.4219 42.4028 91.0822 38.3157 93.2114 41.4905C93.959 42.6069 95.3406 45.6497 95.3585 45.6497H95.526C95.3884 45.4337 95.0894 44.4734 94.9817 44.2033H94.9638ZM73.8516 26.9725C73.8277 27.3026 73.8516 27.7287 74.031 28.2028C74.1746 28.5329 74.7427 29.4872 74.7427 29.4872C74.8803 29.7573 74.9281 29.8773 75.1734 29.8533C75.2272 29.8533 75.3229 29.8233 75.3468 29.8113C75.3647 29.8293 75.9209 31.6058 76.0884 31.9179C76.1004 31.9419 76.1123 31.9659 76.1243 31.9839H65.4785V26.9725H73.8456H73.8516ZM76.519 17.6519C76.2678 17.9339 76.2559 17.964 76.0824 18.234C75.6877 18.5521 75.3408 18.9902 75.0478 19.4644C75.0478 19.4644 75.0478 19.4584 75.0537 19.4524H65.4785V14.423H79.2403V16.9677C77.9783 17.0757 76.7044 17.4418 76.513 17.6519H76.519ZM83.8036 30.6815C83.5465 30.7115 83.2893 30.7175 83.0441 30.6155C82.9244 30.5675 82.8168 30.4955 82.6972 30.4535C82.5596 30.4054 81.6804 30.4475 81.3874 30.4715C81.3037 30.4775 80.9747 30.5015 80.9149 30.5255C80.885 30.5375 80.891 30.7835 80.891 30.8736C82.1888 30.8736 82.5835 30.8736 82.7211 30.8916C82.8587 30.9036 83.0142 31.0836 82.8826 31.1977C82.8048 31.2637 82.6912 31.2817 82.6015 31.3177C82.3742 31.3957 82.3443 31.5578 82.3682 31.7798C82.3802 31.8759 82.3324 31.9239 82.2606 31.9359C82.0034 31.9839 81.7163 31.9539 81.4532 31.9539C80.8671 31.9419 80.3886 31.9659 79.7008 31.9539C79.6769 31.9539 79.6709 31.9359 79.6709 31.9239C79.6709 31.9239 79.6649 31.9179 79.6589 31.9059C79.6051 31.7078 79.5513 31.5098 79.4975 31.3117C79.4616 31.1797 79.3898 30.8676 79.318 30.8376C79.2702 30.8196 79.2403 30.8256 79.1805 30.7955C79.1267 30.7655 78.9233 30.2254 78.9771 30.0093C78.9831 29.9793 79.025 29.9433 79.0429 29.9313C79.1745 29.8653 79.5872 29.9133 79.7786 29.7212C79.94 29.5592 80.0238 29.2951 80.1254 29.0911C80.1075 28.767 80.0836 27.4826 80.0776 27.1225C80.0776 27.0985 80.8192 26.1983 80.9687 26.0362C80.9986 26.0062 81.0106 26.0902 81.0046 26.0902C81.0166 26.3963 81.0226 26.6964 81.0345 27.0025C81.0345 27.0805 81.0584 27.1765 81.0166 27.2486C80.9687 27.3326 80.3946 27.7647 80.3707 27.8607C80.3228 28.0588 80.3228 28.3049 80.4663 28.1968C80.5022 28.1668 80.7833 27.7947 80.7893 27.7947C80.9029 27.7707 81.9735 27.6867 82.1469 27.7347C82.4699 27.8187 82.4699 28.3949 82.44 28.653C82.44 28.653 82.44 28.659 82.44 28.665C82.4699 28.6349 81.2319 29.9553 81.2319 29.9553C81.5668 29.9733 82.9723 29.9013 83.1517 29.9913C83.367 30.0994 83.5644 30.2374 83.7677 30.3694C84.013 30.5255 83.8455 30.6935 83.8096 30.6995L83.8036 30.6815ZM83.3072 26.4803C83.1338 26.4803 82.9544 26.4683 82.7809 26.4623C82.6792 26.4623 82.6015 26.4503 82.5178 26.3843C82.3862 26.2703 82.2785 26.1202 82.1649 25.9942C82.0752 25.8922 81.9795 25.7901 81.9017 25.6761C81.8359 25.5801 81.7881 25.4721 81.7761 25.352C81.7582 25.178 81.6864 24.6558 81.7283 24.6498C82.5716 24.5958 83.4328 24.7759 84.2761 24.8059C84.4196 24.8059 84.5213 24.8179 84.629 24.9199C84.7426 25.0279 84.8323 25.16 84.9041 25.292C85.0416 25.5561 85.1074 25.8502 85.0895 26.1503C85.0716 26.2343 84.5632 26.4143 84.4914 26.2103C84.4137 26.0062 83.5584 25.9702 83.4807 26.1322C83.4089 26.2823 84.2342 26.2223 84.2342 26.4683C84.2342 26.4863 84.2163 26.5043 84.1984 26.5043C83.8395 26.4923 83.6601 26.4923 83.3012 26.4803H83.3072Z" fill="white"/>
</g>
<defs>
<clipPath id="clip0_1813_4854">
<rect width="238" height="53" fill="white" transform="translate(0 0.5)"/>
</clipPath>
</defs>
</svg>
