<svg width="48" height="48" viewBox="0 0 48 48" fill="none" xmlns="http://www.w3.org/2000/svg">
<rect x="0.5" y="0.5" width="47" height="47" rx="23.5" fill="white"/>
<rect x="0.5" y="0.5" width="47" height="47" rx="23.5" stroke="#4F4F4F"/>
<path d="M30.9831 20.3655L34.2087 19.4695C34.5413 19.3771 34.736 19.0326 34.6436 18.7C34.5513 18.3675 34.2068 18.1727 33.8741 18.2651L29.8645 19.3788C29.8643 19.3789 29.8647 19.3788 29.8645 19.3788L24.6249 20.8342V13.9583C24.6249 13.6131 24.3451 13.3333 23.9999 13.3333C23.6547 13.3333 23.3749 13.6131 23.3749 13.9583V21.1815L17.8147 22.726C17.8145 22.7261 17.8149 22.7259 17.8147 22.726L13.7911 23.8436C13.4586 23.936 13.2639 24.2805 13.3562 24.6131C13.433 24.8898 13.6843 25.071 13.9581 25.071C14.0134 25.071 14.0697 25.0636 14.1256 25.048L16.6334 24.3514L13.4225 29.7035C13.3642 29.8006 13.3334 29.9118 13.3334 30.0251C13.3334 32.5844 15.4156 34.6666 17.975 34.6666C20.5344 34.6666 22.6166 32.5844 22.6166 30.0251C22.6166 29.9118 22.5858 29.8006 22.5275 29.7035L18.9333 23.7126L28.6831 21.0044L25.4722 26.3564C25.414 26.4535 25.3831 26.5647 25.3831 26.6779C25.3831 29.2373 27.4653 31.3195 30.0247 31.3195C31.2645 31.3195 32.43 30.8366 33.3068 29.9599C34.1835 29.0832 34.6663 27.9176 34.6662 26.6778C34.6663 26.5646 34.6355 26.4535 34.5772 26.3563L30.9831 20.3655ZM20.8878 29.4H15.0623L17.975 24.5449L20.8878 29.4ZM27.112 26.0529L30.0248 21.1978L32.9376 26.0529H27.112Z" fill="#4F4F4F"/>
</svg>
