<svg width="49" height="49" viewBox="0 0 49 49" fill="none" xmlns="http://www.w3.org/2000/svg">
<g clip-path="url(#clip0_587_2612)">
<path d="M20.9124 23.573C20.1758 23.573 19.5791 24.1299 19.5791 24.8175C19.5791 25.5044 20.1758 26.0619 20.9124 26.0619C21.6491 26.0619 22.2458 25.5044 22.2458 24.8175C22.2458 24.1299 21.6491 23.573 20.9124 23.573ZM18.2251 12.373L16.5618 7.39526H12.2458C11.8778 7.39526 11.5791 7.67402 11.5791 8.01749C11.5791 8.36095 11.8778 8.63971 12.2458 8.63971H15.5791L16.9191 12.373H16.9124L18.2458 19.8397C18.2458 21.2142 19.4398 22.3286 20.9124 22.3286H28.2458C29.7184 22.3286 30.9124 21.2142 30.9124 19.8397L32.9124 12.373H18.2251ZM27.5791 23.573C26.8424 23.573 26.2458 24.1299 26.2458 24.8175C26.2458 25.5044 26.8424 26.0619 27.5791 26.0619C28.3158 26.0619 28.9124 25.5044 28.9124 24.8175C28.9124 24.1299 28.3158 23.573 27.5791 23.573Z" fill="#4F4F4F"/>
</g>
<path d="M8.7591 39.7453L12.1791 43.3953H10.9891L7.7291 39.9053V43.3953H6.8291V36.3953H7.7291V39.6853L10.7691 36.3953H11.8791L8.7591 39.7453ZM14.4425 43.4953C13.9758 43.4953 13.5625 43.3853 13.2025 43.1653C12.8491 42.9453 12.5725 42.6386 12.3725 42.2453C12.1725 41.8519 12.0725 41.4019 12.0725 40.8953C12.0725 40.3886 12.1725 39.9386 12.3725 39.5453C12.5725 39.1519 12.8491 38.8453 13.2025 38.6253C13.5625 38.4053 13.9758 38.2953 14.4425 38.2953C14.9091 38.2953 15.3225 38.4053 15.6825 38.6253C16.0425 38.8453 16.3225 39.1519 16.5225 39.5453C16.7225 39.9386 16.8225 40.3886 16.8225 40.8953C16.8225 41.4019 16.7225 41.8519 16.5225 42.2453C16.3225 42.6386 16.0425 42.9453 15.6825 43.1653C15.3225 43.3853 14.9091 43.4953 14.4425 43.4953ZM14.4425 42.7453C14.9225 42.7453 15.2958 42.5819 15.5625 42.2553C15.8358 41.9219 15.9725 41.4686 15.9725 40.8953C15.9725 40.3219 15.8358 39.8719 15.5625 39.5453C15.2958 39.2119 14.9225 39.0453 14.4425 39.0453C13.9691 39.0453 13.5958 39.2119 13.3225 39.5453C13.0558 39.8719 12.9225 40.3219 12.9225 40.8953C12.9225 41.4686 13.0558 41.9219 13.3225 42.2553C13.5958 42.5819 13.9691 42.7453 14.4425 42.7453ZM17.724 45.3953V38.3953H18.524V39.2953H18.574C18.774 38.9686 19.024 38.7219 19.324 38.5553C19.624 38.3819 19.9574 38.2953 20.324 38.2953C20.744 38.2953 21.1174 38.4053 21.444 38.6253C21.7707 38.8453 22.024 39.1519 22.204 39.5453C22.384 39.9386 22.474 40.3886 22.474 40.8953C22.474 41.4019 22.384 41.8519 22.204 42.2453C22.024 42.6386 21.7707 42.9453 21.444 43.1653C21.1174 43.3853 20.744 43.4953 20.324 43.4953C19.9574 43.4953 19.624 43.4119 19.324 43.2453C19.0307 43.0786 18.7974 42.8453 18.624 42.5453H18.574V45.3953H17.724ZM20.154 42.7453C20.614 42.7453 20.974 42.5819 21.234 42.2553C21.494 41.9286 21.624 41.4753 21.624 40.8953C21.624 40.3153 21.494 39.8619 21.234 39.5353C20.974 39.2086 20.614 39.0453 20.154 39.0453C19.6807 39.0453 19.2974 39.2153 19.004 39.5553C18.7174 39.8886 18.574 40.3353 18.574 40.8953C18.574 41.4553 18.7174 41.9053 19.004 42.2453C19.2974 42.5786 19.6807 42.7453 20.154 42.7453ZM26.1483 40.7953C26.4683 40.9019 26.7117 41.0586 26.8783 41.2653C27.045 41.4653 27.1283 41.7086 27.1283 41.9953C27.1283 42.4419 26.9417 42.8053 26.5683 43.0853C26.2017 43.3586 25.7217 43.4953 25.1283 43.4953C24.5683 43.4953 24.095 43.3653 23.7083 43.1053C23.3217 42.8453 23.0617 42.4586 22.9283 41.9453L23.6883 41.8153C23.7683 42.1286 23.9317 42.3619 24.1783 42.5153C24.4317 42.6686 24.7483 42.7453 25.1283 42.7453C25.4817 42.7453 25.7617 42.6786 25.9683 42.5453C26.175 42.4119 26.2783 42.2186 26.2783 41.9653C26.2783 41.7186 26.1817 41.5286 25.9883 41.3953C25.795 41.2619 25.525 41.1953 25.1783 41.1953H24.4783V40.4953H25.1283C25.4417 40.4953 25.685 40.4319 25.8583 40.3053C26.0383 40.1786 26.1283 40.0019 26.1283 39.7753C26.1283 39.5419 26.035 39.3619 25.8483 39.2353C25.6683 39.1086 25.4117 39.0453 25.0783 39.0453C24.7517 39.0453 24.485 39.1119 24.2783 39.2453C24.0717 39.3786 23.925 39.5886 23.8383 39.8753L23.0783 39.7453C23.2117 39.2653 23.4517 38.9053 23.7983 38.6653C24.145 38.4186 24.5717 38.2953 25.0783 38.2953C25.445 38.2953 25.7717 38.3586 26.0583 38.4853C26.3517 38.6053 26.5783 38.7753 26.7383 38.9953C26.8983 39.2086 26.9783 39.4519 26.9783 39.7253C26.9783 39.9853 26.905 40.2086 26.7583 40.3953C26.6117 40.5819 26.4083 40.7153 26.1483 40.7953ZM29.0056 43.3953H28.0756V38.3953H28.9056V42.1753H28.9556L31.3956 38.3953H32.3256V43.3953H31.4956V39.6153H31.4456L29.0056 43.3953ZM36.8248 40.4753V38.3953H37.6748V43.3953H36.8248V41.2253H34.3748V43.3953H33.5248V38.3953H34.3748V40.4753H36.8248ZM43.2264 42.7453V43.3953H42.8764C42.603 43.3953 42.393 43.3219 42.2464 43.1753C42.0997 43.0286 42.0264 42.8186 42.0264 42.5453V42.4453H41.9764C41.7764 42.7919 41.5197 43.0553 41.2064 43.2353C40.8997 43.4086 40.563 43.4953 40.1964 43.4953C39.7297 43.4953 39.343 43.3619 39.0364 43.0953C38.7297 42.8286 38.5764 42.4686 38.5764 42.0153C38.5764 41.5353 38.753 41.1453 39.1064 40.8453C39.4597 40.5453 39.9164 40.3953 40.4764 40.3953H41.8764V40.1953C41.8764 39.8219 41.783 39.5386 41.5964 39.3453C41.4097 39.1453 41.1297 39.0453 40.7564 39.0453C40.4297 39.0453 40.1564 39.1186 39.9364 39.2653C39.723 39.4119 39.573 39.6319 39.4864 39.9253L38.7264 39.7953C38.8597 39.3353 39.0964 38.9719 39.4364 38.7053C39.7764 38.4319 40.2164 38.2953 40.7564 38.2953C41.383 38.2953 41.8664 38.4686 42.2064 38.8153C42.553 39.1619 42.7264 39.6219 42.7264 40.1953V42.3953C42.7264 42.5153 42.7497 42.6053 42.7964 42.6653C42.843 42.7186 42.9197 42.7453 43.0264 42.7453H43.2264ZM40.3264 42.7453C40.613 42.7453 40.873 42.6819 41.1064 42.5553C41.3464 42.4286 41.533 42.2486 41.6664 42.0153C41.8064 41.7753 41.8764 41.5019 41.8764 41.1953V41.0953H40.5264C40.1997 41.0953 39.933 41.1719 39.7264 41.3253C39.5264 41.4719 39.4264 41.6853 39.4264 41.9653C39.4264 42.2119 39.5064 42.4053 39.6664 42.5453C39.8264 42.6786 40.0464 42.7453 40.3264 42.7453Z" fill="#303030"/>
<defs>
<clipPath id="clip0_587_2612">
<rect width="21.3333" height="21.3333" fill="white" transform="translate(12.0791 5.72852)"/>
</clipPath>
</defs>
</svg>
