<svg width="170" height="37" viewBox="0 0 170 37" fill="none" xmlns="http://www.w3.org/2000/svg">
<path d="M40.674 25.6089H36.9409V0.566681H40.674V10.5992H43.2235V0.566681H46.9566V25.6089H43.2235V14.6018H40.674V25.6089ZM58.5201 20.0209C58.5201 23.5166 57.3624 25.9078 53.7594 25.9078H53.1351C49.5711 25.9078 48.3093 23.5166 48.3093 20.0209V6.08975C48.3093 2.59397 49.5711 0.332764 53.096 0.332764H53.7204C57.3625 0.332764 58.5071 2.61996 58.5071 6.05076L58.5201 20.0209ZM54.722 5.88182C54.722 4.60827 54.2927 3.95849 53.4342 3.95849C52.4717 3.95849 52.1075 4.56928 52.1075 5.88182V20.2938C52.1075 21.3724 52.4067 22.2171 53.4602 22.2171C54.4878 22.2171 54.722 21.3724 54.722 20.2938V5.88182ZM59.8078 0.566681H65.6872C68.7569 0.566681 69.6154 2.2171 69.6154 4.63426V8.46792C69.6154 10.5862 68.7179 11.5608 67.7683 11.9377C68.7309 12.3146 69.9145 13.0813 69.9145 15.6024V21.0215C69.9145 23.6856 68.7569 25.5959 65.9473 25.5959H59.8078V0.566681ZM63.5539 3.95849V10.4562H64.6726C65.7002 10.4562 65.9603 9.75447 65.9603 8.70183V5.54394C65.9603 4.5043 65.7002 3.95849 64.6726 3.95849H63.5539ZM63.5539 14.1989V22.0742H64.6726C65.8562 22.0742 66.1294 21.5024 66.1294 20.3847V15.8103C66.1294 14.7707 65.8693 14.1989 64.6726 14.1989H63.5539ZM76.8344 20.8916H74.0899L73.6216 25.6089H70.2787L73.2834 0.566681H77.7189L80.9188 25.6089H77.3157L76.8344 20.8916ZM74.4931 17.1619H76.4442L75.4557 7.90911L74.4931 17.1619ZM87.1103 15.1086L84.3657 25.6089H80.5285L83.5072 14.4328C82.1545 13.991 81.4521 12.9903 81.4521 11.4049V4.43933C81.4521 1.60632 82.7138 0.566681 85.2242 0.566681H91.2856V25.6089H87.5525V15.1086H87.1103ZM87.5525 3.95849H86.5639C85.4063 3.95849 85.2112 4.49131 85.2112 5.56993V9.67649C85.2112 10.7811 85.5364 11.4569 86.5639 11.4569H87.5525V3.95849ZM96.9048 0.566681H102.784C105.854 0.566681 106.712 2.2171 106.712 4.63426V8.46792C106.712 10.5862 105.815 11.5608 104.865 11.9377C105.828 12.3146 107.011 13.0813 107.011 15.6024V21.0215C107.011 23.6856 105.854 25.5959 103.044 25.5959H96.8918L96.9048 0.566681ZM100.638 3.95849V10.4562H101.757C102.784 10.4562 103.044 9.75447 103.044 8.70183V5.54394C103.044 4.5043 102.784 3.95849 101.757 3.95849H100.638ZM100.638 14.1989V22.0742H101.757C102.94 22.0742 103.213 21.5024 103.213 20.3847V15.8103C103.213 14.7707 102.953 14.1989 101.757 14.1989H100.638ZM114.022 10.2613C116.572 10.2613 117.86 11.9117 117.86 14.8747V21.2424C117.86 24.2444 116.676 25.6219 114.022 25.6219H108.104V0.566681H111.837V10.2613H114.022ZM112.8 21.9702C113.892 21.9702 114.087 21.2294 114.087 20.2548V15.7064C114.087 14.6667 113.957 13.887 112.8 13.887H111.837V21.9702H112.8ZM122.646 25.6089H118.913V0.566681H122.646V25.6089ZM130.152 14.7057H133.82V20.4887C133.82 23.1788 132.922 25.9078 129.358 25.9078H128.526C124.728 25.9078 123.934 23.1528 123.934 20.6187V5.34901C123.934 2.7889 125.027 0.332764 128.396 0.332764H129.254C133.351 0.332764 133.82 3.0878 133.82 5.55694V10.0274H130.152V5.62191C130.152 4.54329 129.826 3.97149 128.89 3.97149C127.966 3.97149 127.732 4.5043 127.732 5.62191V20.4887C127.732 21.6323 128.135 22.2041 128.916 22.2041C129.813 22.2041 130.139 21.5673 130.139 20.5147V14.7057H130.152ZM145.136 20.0209C145.136 23.5166 143.978 25.9078 140.375 25.9078H139.751C136.187 25.9078 134.925 23.5166 134.925 20.0209V6.08975C134.925 2.59397 136.187 0.332764 139.712 0.332764H140.336C143.978 0.332764 145.123 2.61996 145.123 6.05076L145.136 20.0209ZM141.325 5.88182C141.325 4.60827 140.896 3.95849 140.037 3.95849C139.075 3.95849 138.71 4.56928 138.71 5.88182V20.2938C138.71 21.3724 139.01 22.2171 140.063 22.2171C141.091 22.2171 141.325 21.3724 141.325 20.2938V5.88182ZM155.88 0.566681V4.20541H152.745V25.6219H149.038V4.19241H145.903V0.553686L155.88 0.566681ZM161.889 20.8916H159.145L158.677 25.6089H155.334L158.338 0.566681H162.774L165.987 25.6089H162.384L161.889 20.8916ZM159.548 17.1619H161.499L160.511 7.90911L159.548 17.1619Z" fill="#D7192D"/>
<path d="M19.3291 15.9536C19.3031 16.0446 19.3161 16.0835 19.4072 16.1225C19.5373 16.1875 19.7194 16.1745 19.8494 16.1615C19.9925 16.1485 20.2657 16.0575 20.2657 16.2915C20.2657 16.3045 20.2527 16.3305 20.2266 16.3305C19.8624 16.3175 19.4982 16.3045 19.147 16.2915C18.9779 16.2915 18.7958 16.2785 18.6267 16.2785C18.5227 16.2785 18.4446 16.2655 18.3666 16.2005C18.2365 16.0835 18.1325 15.9406 18.0154 15.8106C17.9243 15.7067 17.8333 15.6027 17.7552 15.4987C17.6902 15.4078 17.6382 15.2908 17.6252 15.1739C17.6122 15.0049 17.5341 14.4721 17.5861 14.4721C18.4316 14.4201 19.2901 14.6021 20.1356 14.628C20.2787 14.628 20.3827 14.641 20.4868 14.745C20.6039 14.849 20.6949 14.9789 20.7599 15.1219C20.903 15.3818 20.9681 15.6807 20.942 15.9796C20.929 16.0705 20.4218 16.2395 20.3437 16.0446C20.2657 15.8236 19.3421 15.8496 19.3291 15.9536ZM17.235 20.2681C17.5211 20.2421 18.4056 20.2031 18.5487 20.2551C18.6658 20.2941 18.7828 20.372 18.8999 20.424C19.147 20.528 19.3942 20.515 19.6543 20.489C19.6933 20.489 19.8494 20.3201 19.6153 20.1641C19.4202 20.0342 19.2121 19.8912 19.0039 19.7872C18.8218 19.6963 17.4171 19.7612 17.0789 19.7483C17.0789 19.7483 18.3146 18.4357 18.2885 18.4617V18.4487C18.3146 18.1888 18.3146 17.617 17.9894 17.539C17.8203 17.487 16.7537 17.578 16.6366 17.604C16.6366 17.604 16.3505 17.9809 16.3114 18.0069C16.1684 18.1238 16.1683 17.8639 16.2204 17.669C16.2464 17.565 16.8187 17.1362 16.8707 17.0582C16.9098 16.9802 16.8968 16.8893 16.8838 16.8113C16.8707 16.5124 16.8577 16.2005 16.8577 15.9016C16.8577 15.9016 16.8447 15.8106 16.8187 15.8496C16.6756 16.0186 15.9342 16.9023 15.9342 16.9282C15.9342 17.2921 15.9602 18.5657 15.9862 18.8906C15.8822 19.0985 15.8041 19.3584 15.6481 19.5273C15.4529 19.7223 15.0497 19.6703 14.9066 19.7353C14.8936 19.7483 14.8416 19.7872 14.8416 19.8132C14.7896 20.0212 14.9977 20.567 15.0497 20.593C15.1148 20.6189 15.1408 20.6189 15.1928 20.6319C15.2578 20.6579 15.3359 20.9698 15.3749 21.1128C15.4269 21.3077 15.479 21.5026 15.544 21.6976C15.544 21.7106 15.544 21.7106 15.557 21.7106C15.557 21.7236 15.57 21.7366 15.583 21.7496C16.2724 21.7626 16.7537 21.7496 17.339 21.7496C17.5992 21.7496 17.8853 21.7755 18.1455 21.7366C18.2105 21.7236 18.2625 21.6716 18.2495 21.5806C18.2235 21.3597 18.2495 21.2037 18.4837 21.1258C18.5747 21.0998 18.6918 21.0738 18.7698 21.0088C18.8999 20.8919 18.7438 20.7099 18.6007 20.6969C18.4576 20.6839 18.0674 20.6709 16.7667 20.6839C16.7667 20.593 16.7537 20.346 16.7927 20.333C16.8187 20.2941 17.1439 20.2811 17.235 20.2681ZM31.413 35.5247C31.2829 35.1089 30.9187 34.2772 30.8146 34.0043C30.4114 32.9386 29.1887 30.5735 28.6164 29.4299C28.3953 28.988 27.4067 28.5592 26.9254 28.4422C25.5857 28.1173 24.2459 27.7275 22.9192 27.3636C22.594 27.2726 22.2818 27.1946 21.9566 27.1037C21.6444 26.9867 21.3453 26.8828 21.0981 26.7918C20.942 26.6099 20.6949 25.5702 20.5258 25.5312C20.3047 25.4792 20.0836 25.7262 19.8494 26.116C19.8494 26.129 19.8364 26.129 19.8364 26.142C19.8234 26.181 19.7974 26.207 19.7844 26.246C19.7714 26.259 19.7714 26.272 19.7584 26.285C19.7454 26.311 19.7194 26.3499 19.7063 26.3759C19.6933 26.4019 19.6803 26.4149 19.6803 26.4409C19.6673 26.4669 19.6543 26.4929 19.6413 26.5189C19.6153 26.5709 19.5893 26.6228 19.5763 26.6748C19.5763 26.6878 19.5633 26.6878 19.5633 26.7008C19.5373 26.7528 19.5242 26.8048 19.4982 26.8438C19.4982 26.8568 19.4852 26.8568 19.4852 26.8698C19.4592 26.9217 19.4332 26.9867 19.4202 27.0387C19.095 27.8704 18.8088 28.8321 18.6658 29.3779C18.6267 29.5078 18.4706 29.5338 18.3796 29.4429C17.9243 28.6761 17.0789 27.8054 16.7667 27.4546C16.7537 27.4416 16.7407 27.4416 16.7277 27.4286C16.3895 27.0257 16.2074 26.7138 16.4025 26.311C16.6236 25.8561 16.7147 25.4013 17.0919 25.1933C17.5731 24.9074 18.1064 24.6475 18.5487 24.2967C18.9519 23.9718 19.9145 23.9198 20.2136 23.5039C20.3697 23.283 20.6559 22.8022 20.7339 22.5553C20.7469 22.5293 20.851 22.0874 20.89 21.9055C20.89 21.8925 20.877 21.8665 20.864 21.8665C20.812 21.8665 20.6039 22.5163 20.2527 22.8932C20.0055 23.1531 19.8364 23.205 19.6283 23.231H19.6153C19.4982 23.244 19.095 23.309 18.8999 23.348C18.8349 23.361 18.7828 23.335 18.7438 23.283C18.6658 23.192 18.7178 23.0621 18.8218 23.0231C18.9129 22.9971 19.0039 22.9711 19.0039 22.9711C19.017 22.9711 19.108 22.9061 19.108 22.8152C19.095 22.7112 19.1861 22.2564 18.0414 22.3993H18.0284C17.4431 22.4123 16.8707 22.4903 16.2854 22.5163C15.9602 22.5293 15.635 22.5293 15.479 22.1914C15.3359 21.9055 15.2448 21.5806 15.1278 21.2687L14.7896 20.359C14.7375 20.2031 14.6725 20.0601 14.6205 19.9042C14.5554 19.7353 14.4774 19.5403 14.5164 19.3584C14.6205 18.9295 15.2188 18.8256 15.2708 18.3837C15.2969 18.2018 14.8806 17.9549 14.5684 17.9419C14.3994 17.9419 13.2157 17.9029 13.1506 17.721C13.1116 17.578 13.3458 16.8243 13.4888 16.5644C13.5018 16.5384 13.5279 16.5124 13.5539 16.4994C13.6059 16.4734 13.6449 16.4474 13.71 16.4474C14.0221 16.4084 14.3473 16.4084 14.6595 16.3824C14.9717 16.3694 15.3099 16.3824 15.609 16.3045C15.8562 16.2395 16.0253 16.0575 16.1944 15.8886C16.4285 15.6677 16.9358 15.1349 16.9358 15.1219C16.9878 15.0699 16.7407 14.3292 16.6236 14.3292C16.1033 14.3162 14.2693 14.4461 13.9441 14.4591L13.6579 14.4721C13.5929 14.3292 13.5799 14.3162 13.5149 14.1732C13.5279 14.1602 13.5279 14.1602 13.5409 14.1472C15.1278 13.9523 16.8317 13.7703 18.0284 13.8353C19.108 13.8873 19.8494 13.9393 20.3437 13.9783C20.5778 13.9913 21.3193 14.3421 21.2412 16.0316V16.0705C21.2542 16.1745 21.0461 18.9036 21.0461 18.9036C21.0461 19.1115 21.3713 19.1115 21.3713 18.9036C21.3713 18.9036 21.4363 18.2928 21.4493 18.1238C21.5014 17.513 21.6314 17.1102 21.7095 16.8763V16.8633C21.8396 16.5644 22.1777 15.4468 21.7615 15.3428C21.7095 15.3298 21.7225 15.2648 21.7225 15.2128C21.7355 15.1349 21.8135 14.0822 21.8135 14.0562C22.594 13.9523 22.9452 12.8087 21.8656 12.6657C19.4722 12.4448 17.0789 12.4578 14.6855 12.7047C14.4124 12.7437 14.1262 12.7957 13.853 12.8347C14.6075 12.6917 17.0398 11.834 21.8656 12.3928C22.0477 12.4188 21.9176 11.1583 21.6054 10.6774C21.5014 10.5085 21.2022 10.4695 21.0981 10.4695C20.4087 9.27392 19.3421 7.44156 18.6528 7.36359C18.4316 7.3376 17.8853 7.16866 17.6772 7.18165C17.6642 7.18165 17.248 6.99972 16.8968 6.89575C15.466 6.4799 12.6304 7.15566 12.3312 7.48055C12.084 7.75345 12.071 7.79244 11.8889 8.05235C10.5362 9.13097 9.76873 11.6781 9.59964 11.795C9.43054 11.847 9.27446 11.964 9.22243 12.1199C9.1834 12.1979 9.1704 12.2759 9.1704 12.3668C9.1704 12.9906 9.19641 13.7184 9.22243 14.1342C9.23543 14.4721 9.66467 14.693 10.159 14.6151C10.159 14.654 10.185 15.3168 10.211 15.6157C10.224 15.6807 10.185 15.7587 10.1199 15.7846C9.98986 15.8496 9.8858 15.9406 9.82076 16.0705C9.80776 16.0835 9.44355 16.9152 9.84678 17.9939C9.98986 18.3188 10.5622 19.2674 10.5622 19.2674C10.7053 19.5403 10.7443 19.6703 10.9914 19.6313C11.0304 19.6313 11.0565 19.6183 11.0825 19.6053C11.0955 19.6313 11.2126 19.7483 11.3816 20.359C11.4727 20.6969 11.5637 21.0478 11.7328 21.3467C11.8759 21.6196 12.097 21.8145 12.3182 22.0225C12.3442 22.0355 12.3572 22.0614 12.3572 22.0874C12.4873 22.4643 12.5523 24.6345 12.2661 25.3753C12.2271 25.4663 12.1101 25.5182 11.954 25.4662C11.3556 25.2713 10.9264 25.1674 10.8874 25.2193C10.8223 25.3233 10.7443 25.8301 10.6662 26.3629C10.5622 26.4019 10.4581 26.4539 10.3541 26.5059C10.198 26.5709 7.63553 27.4935 7.60951 27.5065C6.58193 27.9744 4.79993 28.8321 3.78535 29.3129C2.43259 29.8847 1.01479 31.873 0.41645 33.1985C0.208333 33.6534 0.0912681 34.9529 0.0522461 35.4987H31.413V35.5247ZM18.6397 30.6644C19.3812 30.6124 19.4462 31.5611 18.7048 31.6131C17.9764 31.6651 17.9113 30.7164 18.6397 30.6644ZM18.6397 32.5748C19.3812 32.5228 19.4462 33.4714 18.7048 33.5234C17.9764 33.5754 17.9113 32.6267 18.6397 32.5748ZM17.9373 7.6235C18.3926 8.10433 18.6658 8.39023 18.9129 8.91005C19.4592 10.0536 19.2511 11.1583 19.2121 10.9763C19.108 10.3785 18.9389 9.85872 18.7178 9.28692C18.5097 8.7671 18.1845 8.29926 17.7552 7.85742C17.6252 7.71447 17.8073 7.46755 17.9373 7.6235ZM12.8515 7.77944C13.5929 7.98737 14.3994 8.53318 14.8806 9.11798C15.8562 10.3006 15.9732 11.5741 15.8432 11.3532C15.4529 10.6644 14.9977 10.0017 14.4774 9.40388C14.0091 8.85807 13.4628 8.35124 12.7474 8.16931C12.5003 8.09133 12.6043 7.71447 12.8515 7.77944ZM12.2922 8.79309C12.5133 8.67613 12.6173 8.87106 12.4352 9.06599C11.8759 9.67678 11.8629 11.1713 11.7719 11.1972C11.4337 11.3012 10.5362 11.5741 10.5102 11.5871C10.263 11.6521 11.3426 9.27392 12.2922 8.79309ZM9.97685 13.7963C9.72971 14.0303 9.83377 12.7827 9.84678 12.7697C9.89881 12.7177 10.1329 12.5878 10.4581 12.4188C10.5232 12.3928 10.6012 12.4188 10.6272 12.4838C10.6402 12.5228 10.6662 12.5488 10.6792 12.5878C10.7053 12.6138 10.8093 12.9126 11.0695 12.8347C11.3166 12.7697 12.2401 12.4448 12.6434 12.3279C12.7214 12.3019 12.7994 12.3668 12.8125 12.4448C12.8125 12.5098 12.7734 12.5618 12.7214 12.5748C12.2011 12.7177 10.4321 13.3545 9.97685 13.7963Z" fill="#231F20"/>
<path d="M1.32683 31.7039V29.2738H3.96732C4.68272 28.9229 5.6973 28.4421 6.5818 28.0262H1.32683V23.023H12.5001C12.4871 22.5941 12.4481 22.2432 12.3961 22.1133C12.3831 22.0873 12.3701 22.0613 12.3571 22.0483C12.266 21.9573 12.162 21.8664 12.0709 21.7754H1.31382V16.7851H9.69056C9.71657 16.3563 9.83363 16.0834 9.84664 16.0834C9.91168 15.9664 10.0157 15.8625 10.1458 15.7975C10.2108 15.7715 10.2499 15.7065 10.2369 15.6285C10.2369 15.6026 10.2369 15.5636 10.2239 15.5246H1.31382V10.5343H10.2239C10.406 10.1445 10.6271 9.70262 10.8872 9.28677H1.31382V4.28352H15.0756V6.81763C15.5048 6.77864 15.9471 6.76565 16.3243 6.80463V0.527832H15.0756V3.03595H1.32683V0.527832H0.078125V35.5376C0.117147 35.0048 0.234214 33.7052 0.442331 33.2374C0.650449 32.7695 0.949616 32.2367 1.32683 31.7039Z" fill="#D7192D"/>
<path d="M169.59 2.4123C169.59 2.91913 169.408 3.36097 169.043 3.72485C168.679 4.08872 168.25 4.27065 167.73 4.27065C167.222 4.27065 166.78 4.08872 166.416 3.72485C166.052 3.36097 165.87 2.93212 165.87 2.4123C165.87 1.90548 166.052 1.46364 166.416 1.09976C166.78 0.735892 167.209 0.553955 167.73 0.553955C168.25 0.553955 168.679 0.735891 169.043 1.08677C169.408 1.45064 169.59 1.89249 169.59 2.4123ZM169.278 2.4123C169.278 1.98346 169.121 1.61958 168.822 1.32069C168.523 1.02179 168.159 0.865846 167.73 0.865846C167.3 0.865846 166.936 1.02179 166.637 1.32069C166.338 1.61958 166.182 1.98346 166.182 2.4123C166.182 2.84115 166.338 3.20503 166.637 3.50392C166.936 3.80282 167.3 3.95876 167.73 3.95876C168.159 3.95876 168.523 3.80282 168.822 3.50392C169.134 3.19203 169.278 2.82816 169.278 2.4123ZM168.627 3.47793H168.237L167.691 2.64622H167.352V3.47793H167.027V1.35967H167.886C168.068 1.35967 168.237 1.42465 168.38 1.54161C168.523 1.65857 168.601 1.81451 168.601 2.00945C168.601 2.21737 168.536 2.37332 168.406 2.47728C168.276 2.58125 168.159 2.63323 168.068 2.63323L168.627 3.47793ZM168.263 1.99645C168.263 1.89249 168.224 1.80152 168.146 1.72355C168.068 1.65857 167.977 1.61958 167.886 1.61958H167.339V2.34733H167.886C167.99 2.34733 168.068 2.30834 168.146 2.24336C168.224 2.19138 168.263 2.10041 168.263 1.99645Z" fill="#D7192D"/>
<path d="M39.4518 33.1336L37.995 30.2486H36.9414L38.9315 34.0173L38.8795 34.1083C38.8145 34.2383 38.7494 34.3422 38.6974 34.4202C38.6454 34.4982 38.5933 34.5631 38.5413 34.6021C38.4893 34.6411 38.4372 34.6801 38.3852 34.6931C38.3332 34.7061 38.2551 34.7191 38.1771 34.7191C38.06 34.7191 37.969 34.6931 37.8779 34.6411C37.7739 34.5891 37.6958 34.5112 37.6178 34.4332L37.4747 34.2772L37.0715 35.044L37.1365 35.1219C37.2406 35.2519 37.3967 35.3689 37.5918 35.4468C37.7869 35.5248 37.995 35.5768 38.2291 35.5768C38.4242 35.5768 38.5933 35.5508 38.7494 35.4988C38.8925 35.4468 39.0356 35.3689 39.1527 35.2779C39.2697 35.1869 39.3738 35.07 39.4648 34.94C39.5559 34.8101 39.6339 34.6801 39.725 34.5242L42.0143 30.2227H40.9607L39.4518 33.1336Z" fill="#231F20"/>
<path d="M45.9032 33.1206C45.8122 33.0037 45.6951 32.8997 45.5651 32.8088C45.5521 32.7958 45.539 32.7958 45.539 32.7828C45.6561 32.7178 45.7472 32.6268 45.8382 32.5229C45.9293 32.4189 46.0073 32.2889 46.0593 32.133C46.1114 31.99 46.1374 31.8211 46.1374 31.6522C46.1374 31.4442 46.0984 31.2623 46.0333 31.0804C45.9553 30.8984 45.8512 30.7555 45.7211 30.6255C45.5911 30.4956 45.422 30.4046 45.2269 30.3266C45.0318 30.2616 44.8236 30.2227 44.5895 30.2227H42.2222V35.4858H44.6415C44.8887 35.4858 45.1098 35.4468 45.3049 35.3819C45.5 35.3169 45.6691 35.2129 45.8122 35.07C45.9553 34.94 46.0593 34.7711 46.1374 34.5891C46.2024 34.4072 46.2414 34.2123 46.2414 33.9913C46.2414 33.8224 46.2154 33.6665 46.1504 33.5105C46.0723 33.3806 45.9943 33.2506 45.9032 33.1206ZM43.1457 33.2636H44.5115C44.6415 33.2636 44.7586 33.2896 44.8497 33.3286C44.9407 33.3676 45.0187 33.4195 45.0838 33.4845C45.1488 33.5495 45.1878 33.6145 45.2269 33.7054C45.2659 33.7964 45.2789 33.8874 45.2789 33.9783C45.2789 34.1993 45.2139 34.3682 45.0838 34.4982C44.9537 34.6281 44.7586 34.6801 44.5115 34.6801H43.1457V33.2636ZM44.4724 32.3929H43.1457V31.1063H44.4724C44.7066 31.1063 44.8887 31.1713 44.9927 31.2883C45.1098 31.4182 45.1618 31.5612 45.1618 31.7561C45.1618 31.9381 45.1098 32.094 44.9927 32.224C44.8887 32.3409 44.7196 32.3929 44.4724 32.3929Z" fill="#231F20"/>
<path d="M46.9048 35.5119H50.4558V34.6542H47.8283V33.2637H50.4038V32.393H47.8283V31.1065H50.4558V30.2488H46.9048V35.5119Z" fill="#231F20"/>
<path d="M54.5534 30.7426C54.4103 30.5867 54.2282 30.4697 54.0071 30.3787C53.799 30.2878 53.5519 30.2488 53.2917 30.2488H51.1455V35.5119H52.069V33.5366H53.2917C53.5519 33.5366 53.799 33.4976 54.0071 33.4067C54.2152 33.3157 54.3973 33.1987 54.5534 33.0428C54.6965 32.8869 54.8136 32.7179 54.8916 32.51C54.9697 32.3151 55.0087 32.0941 55.0087 31.8732C55.0087 31.6523 54.9697 31.4444 54.8916 31.2364C54.8006 31.0675 54.6965 30.8856 54.5534 30.7426ZM52.069 31.1065H53.2137C53.4738 31.1065 53.6689 31.1715 53.825 31.3274C53.9811 31.4704 54.0461 31.6653 54.0461 31.8992C54.0461 32.1461 53.9681 32.3281 53.825 32.471C53.6689 32.614 53.4738 32.6919 53.2137 32.6919H52.069V31.1065Z" fill="#231F20"/>
<path d="M55.5156 35.5119H59.0666V34.6542H56.4391V33.2637H59.0146V32.393H56.4391V31.1065H59.0666V30.2488H55.5156V35.5119Z" fill="#231F20"/>
<path d="M63.2683 32.38H60.6799V30.2488H59.7563V35.5119H60.6799V33.2377H63.2683V35.5119H64.1919V30.2488H63.2683V32.38Z" fill="#231F20"/>
<path d="M68.5753 32.38H65.9868V30.2488H65.0503V35.5119H65.9868V33.2377H68.5753V35.5119H69.4988V30.2488H68.5753V32.38Z" fill="#231F20"/>
<path d="M74.6625 30.9504C74.4283 30.7035 74.1552 30.5085 73.83 30.3786C73.5048 30.2486 73.1536 30.1707 72.7634 30.1707C72.3732 30.1707 72.022 30.2356 71.6968 30.3786C71.3716 30.5215 71.0985 30.7035 70.8643 30.9504C70.6302 31.1973 70.4611 31.4832 70.331 31.8211C70.201 32.146 70.1489 32.5098 70.1489 32.8997C70.1489 33.2896 70.214 33.6404 70.331 33.9783C70.4611 34.3032 70.6302 34.6021 70.8643 34.849C71.0985 35.0959 71.3716 35.2909 71.6968 35.4208C72.022 35.5508 72.3732 35.6287 72.7634 35.6287C73.1536 35.6287 73.5048 35.5638 73.83 35.4208C74.1552 35.2779 74.4283 35.0959 74.6625 34.849C74.8966 34.6021 75.0657 34.3162 75.1958 33.9783C75.3258 33.6534 75.3779 33.2896 75.3779 32.8997C75.3779 32.5098 75.3128 32.159 75.1958 31.8211C75.0787 31.4832 74.8966 31.1973 74.6625 30.9504ZM72.7764 34.7451C72.5163 34.7451 72.2951 34.6931 72.087 34.6021C71.8789 34.5111 71.7098 34.3812 71.5667 34.2122C71.4236 34.0433 71.3066 33.8484 71.2285 33.6274C71.1505 33.3935 71.1115 33.1466 71.1115 32.8737C71.1115 32.6008 71.1505 32.3539 71.2285 32.12C71.3066 31.899 71.4236 31.6911 71.5667 31.5352C71.7098 31.3792 71.8919 31.2493 72.087 31.1583C72.2951 31.0673 72.5293 31.0154 72.7764 31.0154C73.0366 31.0154 73.2577 31.0673 73.4658 31.1583C73.6739 31.2493 73.843 31.3792 73.9861 31.5352C74.1292 31.6911 74.2462 31.899 74.3243 32.12C74.4023 32.3539 74.4414 32.6008 74.4414 32.8737C74.4414 33.1466 74.4023 33.3935 74.3243 33.6144C74.2462 33.8354 74.1292 34.0433 73.9861 34.1992C73.843 34.3682 73.6739 34.4981 73.4658 34.5891C73.2577 34.7061 73.0236 34.7451 72.7764 34.7451Z" fill="#231F20"/>
<path d="M79.7877 34.0954C79.6577 34.2903 79.4886 34.4463 79.2674 34.5632C79.0463 34.6802 78.8122 34.7452 78.552 34.7452C78.3049 34.7452 78.0708 34.6932 77.8496 34.6152C77.6415 34.5243 77.4464 34.3943 77.2903 34.2384C77.1342 34.0694 77.0042 33.8745 76.9261 33.6536C76.8351 33.4196 76.796 33.1727 76.796 32.8998C76.796 32.6269 76.8351 32.367 76.9261 32.1461C77.0172 31.9252 77.1342 31.7302 77.2903 31.5613C77.4464 31.4054 77.6285 31.2754 77.8496 31.1844C78.0578 31.0935 78.2919 31.0545 78.552 31.0545C78.8122 31.0545 79.0463 31.1195 79.2544 31.2364C79.4756 31.3664 79.6446 31.5223 79.7747 31.7042L79.8528 31.8212L80.6462 31.3794L80.5422 31.2364C80.4381 31.0935 80.321 30.9505 80.1779 30.8336C80.0479 30.7036 79.8918 30.5996 79.7227 30.4957C79.5536 30.4047 79.3715 30.3267 79.1764 30.2747C78.9813 30.2228 78.7602 30.1968 78.526 30.1968C78.1488 30.1968 77.7976 30.2618 77.4724 30.3917C77.1472 30.5217 76.8611 30.7036 76.6139 30.9505C76.3668 31.1844 76.1717 31.4833 76.0416 31.8082C75.8985 32.1461 75.8335 32.51 75.8335 32.9128C75.8335 33.3157 75.8985 33.6796 76.0416 34.0174C76.1847 34.3553 76.3798 34.6412 76.6139 34.8751C76.8611 35.1091 77.1472 35.304 77.4724 35.4339C77.7976 35.5639 78.1488 35.6289 78.526 35.6289C78.9943 35.6289 79.3975 35.5249 79.7227 35.33C80.0479 35.135 80.321 34.8881 80.5422 34.5892L80.6462 34.4463L79.8398 34.0044L79.7877 34.0954Z" fill="#231F20"/>
<path d="M80.75 31.1065H82.3109V35.5119H83.2474V31.1065H84.8213V30.2488H80.75V31.1065Z" fill="#231F20"/>
<path d="M88.737 32.7047C88.5939 32.5488 88.4118 32.4318 88.1907 32.3409C87.9826 32.2499 87.7355 32.2109 87.4753 32.2109H86.2526V30.2356H85.3291V35.4988H87.4753C87.7485 35.4988 87.9826 35.4598 88.1907 35.3688C88.3988 35.2778 88.5809 35.1609 88.737 35.0049C88.8801 34.849 88.9972 34.68 89.0752 34.4721C89.1533 34.2772 89.1923 34.0563 89.1923 33.8353C89.1923 33.6144 89.1533 33.4065 89.0752 33.1986C88.9972 33.0426 88.8931 32.8607 88.737 32.7047ZM86.2656 33.0816H87.4103C87.6704 33.0816 87.8655 33.1466 88.0216 33.3025C88.1777 33.4455 88.2427 33.6404 88.2427 33.8743C88.2427 34.1212 88.1647 34.3032 88.0216 34.4461C87.8655 34.5891 87.6704 34.667 87.4103 34.667H86.2656V33.0816Z" fill="#231F20"/>
<path d="M95.3183 33.1206C95.2272 33.0037 95.1102 32.8997 94.9801 32.8088C94.9671 32.7958 94.9541 32.7958 94.9541 32.7828C95.0711 32.7178 95.1622 32.6268 95.2532 32.5229C95.3443 32.4189 95.4223 32.2889 95.4744 32.133C95.5264 31.99 95.5524 31.8211 95.5524 31.6522C95.5524 31.4442 95.5134 31.2623 95.4484 31.0804C95.3703 30.8984 95.2663 30.7555 95.1362 30.6255C95.0061 30.4956 94.837 30.4046 94.6419 30.3266C94.4468 30.2616 94.2387 30.2227 94.0045 30.2227H91.6372V35.4858H94.0566C94.3037 35.4858 94.5248 35.4468 94.7199 35.3819C94.9151 35.3169 95.0842 35.2129 95.2272 35.07C95.3703 34.94 95.4744 34.7711 95.5524 34.5891C95.6175 34.4072 95.6565 34.2123 95.6565 33.9913C95.6565 33.8224 95.6305 33.6665 95.5654 33.5105C95.5004 33.3806 95.4223 33.2506 95.3183 33.1206ZM92.5607 33.2636H93.9265C94.0566 33.2636 94.1736 33.2896 94.2647 33.3286C94.3557 33.3676 94.4338 33.4195 94.4988 33.4845C94.5639 33.5495 94.6029 33.6145 94.6419 33.7054C94.6809 33.7964 94.6939 33.8874 94.6939 33.9783C94.6939 34.1993 94.6289 34.3682 94.4988 34.4982C94.3687 34.6281 94.1736 34.6801 93.9265 34.6801H92.5607V33.2636ZM93.9005 32.3929H92.5737V31.1063H93.9005C94.1346 31.1063 94.3167 31.1713 94.4208 31.2883C94.5378 31.4182 94.5899 31.5612 94.5899 31.7561C94.5899 31.9381 94.5378 32.094 94.4208 32.224C94.3037 32.3409 94.1346 32.3929 93.9005 32.3929Z" fill="#231F20"/>
<path d="M118.836 30.2488H115.506L115.18 32.8739C115.128 33.2897 115.063 33.6146 114.998 33.8615C114.933 34.0954 114.868 34.2774 114.777 34.4073C114.699 34.5243 114.621 34.6023 114.53 34.6282C114.426 34.6672 114.309 34.6932 114.179 34.7062L114.036 34.7192V35.369L111.773 32.7699L113.984 30.2618H112.8L111.031 32.3281V30.2618H110.108V32.3151L108.339 30.2488H107.155L109.353 32.7569L107.22 35.226L105.217 30.2488H104.241L102.238 35.226L100.105 32.7569L102.303 30.2488H101.12L99.1555 32.549V30.2488H98.2319V35.5119H99.1555V33.7576L99.4936 33.3677L101.302 35.5119H102.108H102.472H103.149L103.591 34.4073H105.854L106.296 35.5119H106.973H107.337H108.144L109.952 33.3677L110.095 33.5236V35.5119H111.018V33.5236L111.161 33.3677L112.969 35.5119H114.023V36.4216H114.946V35.5119H118.328V36.4216H119.252V34.6542H118.797V30.2488H118.836ZM105.568 33.5626H103.916L104.749 31.4704L105.568 33.5626ZM117.912 31.1065V34.6542H115.558C115.649 34.5373 115.727 34.3943 115.805 34.2254C115.935 33.9265 116.039 33.4976 116.104 32.9518L116.338 31.1065H117.912Z" fill="#231F20"/>
<path d="M124.09 30.9504C123.856 30.7035 123.583 30.5085 123.258 30.3786C122.933 30.2486 122.581 30.1707 122.191 30.1707C121.801 30.1707 121.45 30.2356 121.125 30.3786C120.799 30.5215 120.526 30.7035 120.292 30.9504C120.058 31.1973 119.889 31.4832 119.759 31.8211C119.629 32.146 119.577 32.5098 119.577 32.8997C119.577 33.2896 119.642 33.6404 119.759 33.9783C119.889 34.3032 120.058 34.6021 120.292 34.849C120.526 35.0959 120.799 35.2909 121.125 35.4208C121.45 35.5508 121.801 35.6287 122.191 35.6287C122.581 35.6287 122.933 35.5638 123.258 35.4208C123.583 35.2779 123.856 35.0959 124.09 34.849C124.324 34.6021 124.493 34.3162 124.624 33.9783C124.754 33.6534 124.806 33.2896 124.806 32.8997C124.806 32.5098 124.741 32.159 124.624 31.8211C124.493 31.4832 124.311 31.1973 124.09 30.9504ZM122.191 34.7451C121.931 34.7451 121.71 34.6931 121.502 34.6021C121.294 34.5111 121.125 34.3812 120.981 34.2122C120.838 34.0433 120.721 33.8484 120.643 33.6274C120.565 33.3935 120.526 33.1466 120.526 32.8737C120.526 32.6008 120.565 32.3539 120.643 32.12C120.721 31.899 120.838 31.6911 120.981 31.5352C121.125 31.3792 121.307 31.2493 121.502 31.1583C121.71 31.0673 121.944 31.0154 122.191 31.0154C122.451 31.0154 122.672 31.0673 122.881 31.1583C123.089 31.2493 123.258 31.3792 123.401 31.5352C123.544 31.6911 123.661 31.899 123.739 32.12C123.817 32.3539 123.856 32.6008 123.856 32.8737C123.856 33.1466 123.817 33.3935 123.739 33.6144C123.661 33.8354 123.544 34.0433 123.401 34.1992C123.258 34.3682 123.089 34.4981 122.881 34.5891C122.672 34.7061 122.451 34.7451 122.191 34.7451Z" fill="#231F20"/>
<path d="M126.874 30.0926C127.121 30.2225 127.395 30.2875 127.681 30.2875C127.967 30.2875 128.24 30.2225 128.487 30.0926C128.734 29.9626 128.942 29.7937 129.098 29.5728L129.177 29.4558L128.656 29.014L128.552 29.1569C128.448 29.2999 128.331 29.4168 128.175 29.4948C128.019 29.5728 127.85 29.6118 127.655 29.6118C127.46 29.6118 127.29 29.5728 127.134 29.4818C126.978 29.3908 126.848 29.2869 126.744 29.1309L126.64 29.001L126.133 29.4428L126.224 29.5598C126.419 29.7807 126.627 29.9626 126.874 30.0926Z" fill="#231F20"/>
<path d="M126.406 33.8095V30.2488H125.469V35.5119H126.302L128.955 31.8862V35.5119H129.892V30.2488H129.02L126.406 33.8095Z" fill="#231F20"/>
<path d="M136.408 34.0954C136.278 34.2903 136.109 34.4463 135.888 34.5632C135.667 34.6802 135.433 34.7452 135.173 34.7452C134.926 34.7452 134.691 34.6932 134.47 34.6152C134.262 34.5243 134.067 34.3943 133.911 34.2384C133.755 34.0694 133.625 33.8745 133.547 33.6536C133.456 33.4196 133.417 33.1727 133.417 32.8998C133.417 32.6269 133.456 32.367 133.547 32.1461C133.638 31.9252 133.755 31.7302 133.911 31.5613C134.067 31.4054 134.249 31.2754 134.47 31.1844C134.678 31.0935 134.912 31.0545 135.173 31.0545C135.433 31.0545 135.667 31.1195 135.875 31.2364C136.096 31.3664 136.265 31.5223 136.395 31.7042L136.473 31.8212L137.267 31.3794L137.163 31.2364C137.059 31.0935 136.942 30.9505 136.799 30.8336C136.668 30.7036 136.512 30.5996 136.343 30.4957C136.174 30.4047 135.992 30.3267 135.797 30.2747C135.602 30.2228 135.381 30.1968 135.147 30.1968C134.769 30.1968 134.418 30.2618 134.093 30.3917C133.768 30.5217 133.482 30.7036 133.235 30.9505C132.987 31.1844 132.792 31.4833 132.662 31.8082C132.519 32.1461 132.454 32.51 132.454 32.9128C132.454 33.3157 132.519 33.6796 132.662 34.0174C132.805 34.3553 133 34.6412 133.235 34.8751C133.482 35.1091 133.768 35.304 134.093 35.4339C134.418 35.5639 134.769 35.6289 135.147 35.6289C135.615 35.6289 136.018 35.5249 136.343 35.33C136.668 35.135 136.942 34.8881 137.163 34.5892L137.267 34.4463L136.46 34.0044L136.408 34.0954Z" fill="#231F20"/>
<path d="M143.862 33.1336L142.405 30.2486H141.442H141.338H137.358V31.1063H138.932V35.5118H139.855V31.1063H141.429V30.4306L143.315 34.0173L143.263 34.1083C143.198 34.2383 143.133 34.3422 143.081 34.4202C143.029 34.4982 142.977 34.5631 142.925 34.6021C142.873 34.6411 142.821 34.6801 142.769 34.6931C142.717 34.7061 142.639 34.7191 142.561 34.7191C142.444 34.7191 142.353 34.6931 142.262 34.6411C142.158 34.5891 142.08 34.5112 142.002 34.4332L141.858 34.2772L141.455 35.044L141.52 35.1219C141.624 35.2519 141.78 35.3689 141.976 35.4468C142.171 35.5248 142.379 35.5768 142.613 35.5768C142.808 35.5768 142.977 35.5508 143.133 35.4988C143.276 35.4468 143.419 35.3689 143.536 35.2779C143.653 35.1869 143.758 35.07 143.849 34.94C143.94 34.8101 144.018 34.6801 144.109 34.5242L146.398 30.2227H145.344L143.862 33.1336Z" fill="#231F20"/>
<path d="M146.619 35.5119H147.543V31.1065H150.131V35.5119H151.068V30.2488H146.619V35.5119Z" fill="#231F20"/>
<path d="M151.913 35.5119H155.477V34.6542H152.85V33.2637H155.425V32.393H152.85V31.1065H155.477V30.2488H151.913V35.5119Z" fill="#231F20"/>
<path d="M159.679 32.38H157.09V30.2488H156.154V35.5119H157.09V33.2377H159.679V35.5119H160.602V30.2488H159.679V32.38Z" fill="#231F20"/>
<path d="M165.012 30.2488L162.384 33.8095V30.2488H161.461V35.5119H162.293L164.947 31.8862V35.5119H165.87V30.2488H165.012Z" fill="#231F20"/>
</svg>
