<svg width="32" height="32" viewBox="0 0 32 32" fill="none" xmlns="http://www.w3.org/2000/svg">
<g clip-path="url(#clip0_886_1062)">
<path d="M18.9542 14.9082L14.7385 12.3707C14.5451 12.2544 14.3243 12.1916 14.0986 12.1886C13.8729 12.1856 13.6505 12.2426 13.454 12.3537C13.2576 12.4647 13.0941 12.626 12.9804 12.8209C12.8667 13.0159 12.8067 13.2375 12.8067 13.4632V18.537C12.8056 18.7631 12.8649 18.9853 12.9784 19.1809C13.0919 19.3765 13.2555 19.5382 13.4524 19.6494C13.6492 19.7607 13.8722 19.8174 14.0983 19.8138C14.3243 19.8102 14.5454 19.7463 14.7385 19.6288L18.9542 17.092C19.1425 16.9786 19.2982 16.8185 19.4064 16.6272C19.5145 16.4359 19.5714 16.2199 19.5714 16.0001C19.5714 15.7803 19.5145 15.5643 19.4064 15.373C19.2982 15.1816 19.1425 15.0215 18.9542 14.9082Z" fill="#4F4F4F"/>
<path d="M16 0C7.16375 0 0 7.16375 0 16C0 24.8363 7.16375 32 16 32C24.8363 32 32 24.8363 32 16C32 7.16375 24.8363 0 16 0ZM25.6875 19.6825C25.6876 20.1087 25.6037 20.5307 25.4407 20.9244C25.2776 21.3181 25.0386 21.6759 24.7372 21.9772C24.4359 22.2786 24.0781 22.5176 23.6844 22.6807C23.2907 22.8437 22.8687 22.9276 22.4425 22.9275H9.5575C9.13134 22.9276 8.70933 22.8437 8.31559 22.6807C7.92186 22.5176 7.5641 22.2786 7.26276 21.9772C6.96141 21.6759 6.72239 21.3181 6.55934 20.9244C6.3963 20.5307 6.31242 20.1087 6.3125 19.6825V12.3175C6.31242 11.8913 6.3963 11.4693 6.55934 11.0756C6.72239 10.6819 6.96141 10.3241 7.26276 10.0228C7.5641 9.72141 7.92186 9.48239 8.31559 9.31934C8.70933 9.1563 9.13134 9.07242 9.5575 9.0725H22.4425C22.8687 9.07242 23.2907 9.1563 23.6844 9.31934C24.0781 9.48239 24.4359 9.72141 24.7372 10.0228C25.0386 10.3241 25.2776 10.6819 25.4407 11.0756C25.6037 11.4693 25.6876 11.8913 25.6875 12.3175V19.6825Z" fill="#4F4F4F"/>
</g>
<defs>
<clipPath id="clip0_886_1062">
<rect width="32" height="32" fill="white"/>
</clipPath>
</defs>
</svg>
