<svg width="16" height="17" viewBox="0 0 16 17" fill="none" xmlns="http://www.w3.org/2000/svg">
<g clip-path="url(#clip0_436_8896)">
<path d="M14.4062 3.96876H13.5444L14.0164 2.28651C14.2263 1.53876 13.7902 0.762508 13.0425 0.552695C12.2948 0.342758 11.5185 0.778914 11.3087 1.52666L10.6234 3.96876H7.91966L8.39172 2.28651C8.60153 1.53876 8.1655 0.762508 7.41775 0.552695C6.67003 0.342758 5.89378 0.778914 5.68394 1.52666L4.99866 3.96876H3.15625C2.37959 3.96876 1.75 4.59835 1.75 5.37501C1.75 6.15166 2.37959 6.78126 3.15625 6.78126H4.20944L3.24484 10.2188H1.59375C0.817094 10.2188 0.1875 10.8484 0.1875 11.625C0.1875 12.4017 0.817094 13.0313 1.59375 13.0313H2.45563L1.98356 14.7135C1.77372 15.4613 2.20978 16.2375 2.95753 16.4474C3.08459 16.483 3.21244 16.5 3.33822 16.5C3.95266 16.5 4.51719 16.0941 4.69134 15.4734L5.37659 13.0313H8.08034L7.60828 14.7135C7.39847 15.4613 7.8345 16.2375 8.58225 16.4474C8.70931 16.483 8.83716 16.5 8.96294 16.5C9.57737 16.5 10.1419 16.0941 10.3161 15.4734L11.0013 13.0313H12.8438C13.6204 13.0313 14.25 12.4017 14.25 11.625C14.25 10.8484 13.6204 10.2188 12.8438 10.2188H11.7906L12.7552 6.78126H14.4062C15.1829 6.78126 15.8125 6.15166 15.8125 5.37501C15.8125 4.59835 15.1829 3.96876 14.4062 3.96876ZM8.86959 10.2188H6.16584L7.13044 6.78126H9.83419L8.86959 10.2188Z" fill="#828282"/>
</g>
<defs>
<clipPath id="clip0_436_8896">
<rect width="16" height="16" fill="white" transform="translate(0 0.5)"/>
</clipPath>
</defs>
</svg>
