<svg width="48" height="48" viewBox="0 0 48 48" fill="none" xmlns="http://www.w3.org/2000/svg">
<rect width="48" height="48" rx="24" fill="white"/>
<path d="M16.7273 23.1112H29.5169L27.1221 20.1841C26.8381 19.837 26.8381 19.2742 27.1221 18.9271C27.4061 18.58 27.8666 18.58 28.1506 18.9271L31.787 23.3715C32.071 23.7186 32.071 24.2814 31.787 24.6286L28.1506 29.073C28.0086 29.2466 27.8225 29.3334 27.6363 29.3334C27.4502 29.3334 27.2641 29.2466 27.1221 29.073C26.8381 28.7259 26.8381 28.1631 27.1221 27.816L29.5169 24.889H16.7273C16.3256 24.889 16 24.491 16 24.0001C16 23.5092 16.3256 23.1112 16.7273 23.1112Z" fill="#4F4F4F"/>
</svg>
