<svg width="32" height="32" viewBox="0 0 32 32" fill="none" xmlns="http://www.w3.org/2000/svg">
<rect width="32" height="32" rx="16" fill="#4F4F4F"/>
<g clip-path="url(#clip0_1591_6483)">
<path d="M21.7937 11.8H21.1404V10.2367C21.1404 9.56 20.5804 9 19.9037 9H12.1104C11.4337 9 10.8737 9.56 10.8737 10.2367V11.8H10.2204C9.54375 11.8 9.00708 12.3367 9.00708 13.0133V18.7767C9.00708 19.43 9.54375 19.9667 10.2204 19.9667H10.8737V21.67C10.8737 22.3933 11.4571 23 12.2037 23H19.8337C20.5571 23 21.1637 22.4167 21.1637 21.67V19.9667H21.8171C22.4704 19.9667 23.0304 19.43 23.0304 18.7533V13.0133C23.0071 12.3367 22.4704 11.8 21.7937 11.8ZM11.8071 10.2367C11.8071 10.0733 11.9471 9.93333 12.1104 9.93333H19.8804C20.0671 9.93333 20.2071 10.0733 20.2071 10.2367V11.8H11.8071V10.2367ZM20.2071 21.67C20.2071 21.88 20.0437 22.0667 19.8104 22.0667H12.2037C11.9937 22.0667 11.8071 21.9033 11.8071 21.67V15.3H20.2071V21.67Z" fill="white"/>
<path d="M13.4403 17.3999H18.5736C18.8303 17.3999 19.0403 17.1899 19.0403 16.9332C19.0403 16.6766 18.8303 16.4666 18.5736 16.4666H13.4403C13.1836 16.4666 12.9736 16.6766 12.9736 16.9332C12.9736 17.1899 13.1836 17.3999 13.4403 17.3999Z" fill="white"/>
<path d="M13.4403 20.8999H16.007C16.2636 20.8999 16.4736 20.6899 16.4736 20.4332C16.4736 20.1766 16.2636 19.9666 16.007 19.9666H13.4403C13.1836 19.9666 12.9736 20.1766 12.9736 20.4332C12.9736 20.6899 13.1836 20.8999 13.4403 20.8999Z" fill="white"/>
<path d="M13.4403 19.1499H18.5736C18.8303 19.1499 19.0403 18.9399 19.0403 18.6832C19.0403 18.4266 18.8303 18.2166 18.5736 18.2166H13.4403C13.1836 18.2166 12.9736 18.4266 12.9736 18.6832C12.9736 18.9399 13.1836 19.1499 13.4403 19.1499Z" fill="white"/>
</g>
<defs>
<clipPath id="clip0_1591_6483">
<rect width="24" height="24" fill="white" transform="translate(4 4)"/>
</clipPath>
</defs>
</svg>
