<svg width="48" height="48" viewBox="0 0 48 48" fill="none" xmlns="http://www.w3.org/2000/svg">
<rect width="48" height="48" rx="24" fill="white"/>
<path d="M17.1859 34.2177L29.5131 19.5179L30.5691 25.0916C30.6943 25.7526 31.3412 26.2951 32.0139 26.3032C32.6866 26.3114 33.1304 25.7821 33.0053 25.1211L31.4019 16.6579C31.2768 15.997 30.6298 15.4545 29.9571 15.4463L21.344 15.342C21.0076 15.338 20.7284 15.4682 20.549 15.6821C20.3696 15.8961 20.29 16.1937 20.3527 16.5241C20.4778 17.1851 21.1247 17.7276 21.7975 17.7357L27.4698 17.8044L15.1426 32.5042C14.7555 32.9659 14.8991 33.7237 15.4633 34.1969C16.0275 34.67 16.7988 34.6794 17.1859 34.2177Z" fill="#4F4F4F"/>
</svg>
