<svg width="32" height="32" viewBox="0 0 32 32" fill="none" xmlns="http://www.w3.org/2000/svg">
<rect width="32" height="32" rx="16" fill="#4F4F4F"/>
<path d="M23 16.0002C23 16.6768 22.4516 17.2252 21.7745 17.2252H17.2249V21.7749C17.2249 22.4518 16.6763 23.0002 15.9997 23C15.6614 23 15.3551 22.8631 15.1336 22.6415C14.9118 22.4195 14.7747 22.1134 14.7749 21.7753L14.7747 17.225H10.2245C9.8864 17.225 9.58038 17.0881 9.35842 16.8662C9.13701 16.6448 9 16.3385 9 16.0002C8.99982 15.3236 9.54822 14.7751 10.2252 14.7751H14.7749V10.2253C14.7749 9.54857 15.3236 9 16.0003 9C16.6767 9.00018 17.2249 9.5482 17.2253 10.2249V14.7751H21.7754C22.452 14.7755 22.9997 15.3236 23 16.0002Z" fill="white"/>
</svg>
