<svg width="32" height="32" viewBox="0 0 32 32" fill="none" xmlns="http://www.w3.org/2000/svg">
<rect x="32" width="32" height="32" rx="16" transform="rotate(90 32 0)" fill="#333333"/>
<path d="M10.3871 24.6396L21.9439 10.8585L22.9339 16.0839C23.0512 16.7035 23.6577 17.2121 24.2884 17.2198C24.919 17.2274 25.3351 16.7312 25.2178 16.1115L23.7146 8.17726C23.5973 7.5576 22.9908 7.04901 22.3601 7.04137L14.2853 6.94358C13.9699 6.93982 13.7082 7.06188 13.5401 7.26244C13.3719 7.463 13.2972 7.74201 13.356 8.05182C13.4733 8.67148 14.0798 9.18007 14.7105 9.18771L20.0283 9.25211L8.47154 23.0332C8.10861 23.4659 8.24321 24.1764 8.77216 24.62C9.30112 25.0636 10.0242 25.0724 10.3871 24.6396Z" fill="white"/>
</svg>
