<svg width="24" height="24" viewBox="0 0 24 24" fill="none" xmlns="http://www.w3.org/2000/svg">
<path d="M4.49999 7.49996H19.5001C19.7761 7.49996 20.0001 7.16394 20.0001 6.74998C20.0001 6.33596 19.776 6 19.5001 6H4.49999C4.22398 6 4 6.33603 4 6.74998C4 7.16394 4.22402 7.49996 4.49999 7.49996Z" fill="#303030"/>
<path d="M19.5001 11.25H4.49999C4.22398 11.25 4 11.586 4 12C4 12.4139 4.22402 12.75 4.49999 12.75H19.5001C19.7761 12.75 20.0001 12.4139 20.0001 12C20.0001 11.586 19.7761 11.25 19.5001 11.25Z" fill="#303030"/>
<path d="M19.5 16.5H9.49999C9.22398 16.5 9 16.836 9 17.25C9 17.664 9.22402 18 9.49999 18H19.5C19.7761 18 20 17.6639 20 17.25C20.0001 16.836 19.7761 16.5 19.5 16.5Z" fill="#303030"/>
</svg>
