<svg width="17" height="16" viewBox="0 0 17 16" fill="none" xmlns="http://www.w3.org/2000/svg">
<g clip-path="url(#clip0_431_6333)">
<path d="M14.9062 3.46876H14.0444L14.5164 1.78651C14.7263 1.03876 14.2902 0.262508 13.5425 0.0526952C12.7948 -0.157242 12.0185 0.278914 11.8087 1.02666L11.1234 3.46876H8.41966L8.89172 1.78651C9.10153 1.03876 8.6655 0.262508 7.91775 0.0526952C7.17003 -0.157242 6.39378 0.278914 6.18394 1.02666L5.49866 3.46876H3.65625C2.87959 3.46876 2.25 4.09835 2.25 4.87501C2.25 5.65166 2.87959 6.28126 3.65625 6.28126H4.70944L3.74484 9.71876H2.09375C1.31709 9.71876 0.6875 10.3484 0.6875 11.125C0.6875 11.9017 1.31709 12.5313 2.09375 12.5313H2.95563L2.48356 14.2135C2.27372 14.9613 2.70978 15.7375 3.45753 15.9474C3.58459 15.983 3.71244 16 3.83822 16C4.45266 16 5.01719 15.5941 5.19134 14.9734L5.87659 12.5313H8.58034L8.10828 14.2135C7.89847 14.9613 8.3345 15.7375 9.08225 15.9474C9.20931 15.983 9.33716 16 9.46294 16C10.0774 16 10.6419 15.5941 10.8161 14.9734L11.5013 12.5313H13.3438C14.1204 12.5313 14.75 11.9017 14.75 11.125C14.75 10.3484 14.1204 9.71876 13.3438 9.71876H12.2906L13.2552 6.28126H14.9062C15.6829 6.28126 16.3125 5.65166 16.3125 4.87501C16.3125 4.09835 15.6829 3.46876 14.9062 3.46876ZM9.36959 9.71876H6.66584L7.63044 6.28126H10.3342L9.36959 9.71876Z" fill="#828282"/>
</g>
<defs>
<clipPath id="clip0_431_6333">
<rect width="16" height="16" fill="white" transform="translate(0.5)"/>
</clipPath>
</defs>
</svg>
